{
.appVersion = "3151";
.formatVersion = 3;
DisplayStrings = (
"
LIVE/E.001/E.002 
CHUMA MAMBO
HAMBURGEONTSIV
ABCDEFGHIJKLMN
OPQRSTUVWXYZ
hamburgeéfon/n.001 tsiv
abcdefghijklmnopq
rstkhmnopuvwxyz
LlMm
zim vim
Honey money
0123456789
.;,@?!()$-€&
 





"
);
date = "2023-11-07 14:50:43 +0000";
familyName = Mambo;
fontMaster = (
{
guides = (
{
pos = (1461,-149);
},
{
locked = 1;
pos = (8,707);
},
{
locked = 1;
pos = (922,554);
},
{
locked = 1;
pos = (-3,86);
},
{
locked = 1;
pos = (0,474);
},
{
locked = 1;
pos = (-1,535);
},
{
locked = 1;
pos = (3,313);
},
{
locked = 1;
pos = (0,-350);
},
{
locked = 1;
pos = (-2,-44);
},
{
locked = 1;
pos = (647,263);
}
);
id = m01;
metricValues = (
{
over = 20;
pos = 900;
},
{
over = 20;
pos = 800;
},
{
over = 20;
pos = 600;
},
{
over = -20;
},
{
over = -20;
pos = -500;
},
{
over = -16;
}
);
name = Regular;
userData = {
GSCornerRadius = 20;
};
}
);
glyphs = (
{
glyphname = A;
lastChange = "2024-01-31 00:49:49 +0000";
layers = (
{
layerId = m01;
shapes = (
{
closed = 1;
nodes = (
(333,232,l),
(374,232,l),
(374,302,l),
(333,302,l)
);
},
{
closed = 1;
nodes = (
(350,67,o),
(347,100,o),
(344,133,cs),
(335,227,o),
(331,321,o),
(330,415,cs),
(330,462,o),
(331,509,o),
(334,555,cs),
(335,581,o),
(335,607,o),
(338,633,cs),
(339,651,o),
(341,670,o),
(346,687,cs),
(348,697,o),
(353,709,o),
(362,712,cs),
(370,714,o),
(378,710,o),
(383,704,cs),
(389,697,o),
(392,690,o),
(394,683,cs),
(399,666,o),
(397,647,o),
(395,631,cs),
(392,605,o),
(390,579,o),
(387,552,cs),
(383,506,o),
(379,461,o),
(377,415,cs),
(372,332,o),
(371,249,o),
(373,167,cs),
(375,122,o),
(378,78,o),
(381,34,cs),
(381,28,o),
(382,22,o),
(382,17,cs),
(382,7,o),
(391,0,o),
(402,0,cs),
(706,0,ls),
(718,0,o),
(727,9,o),
(727,21,cs),
(726,139,o),
(723,269,o),
(697,382,cs),
(670,501,o),
(625,620,o),
(546,712,cs),
(503,761,o),
(431,816,o),
(364,816,cs),
(298,816,o),
(226,763,o),
(182,712,cs),
(103,620,o),
(57,501,o),
(30,382,cs),
(4,269,o),
(2,139,o),
(0,21,cs),
(0,9,o),
(9,0,o),
(21,0,cs),
(334,0,ls),
(347,0,o),
(356,10,o),
(355,24,cs),
(355,28,o),
(354,31,o),
(354,35,cs)
);
}
);
width = 727;
}
);
unicode = 65;
},
{
color = 0;
glyphname = B;
lastChange = "2024-01-30 19:44:49 +0000";
layers = (
{
layerId = m01;
shapes = (
{
closed = 1;
nodes = (
(179,735,l),
(178,736,o),
(177,738,o),
(178,739,c),
(179,742,o),
(184,741,o),
(189,740,c),
(284,720,o),
(384,623,o),
(399,568,c),
(400,565,o),
(397,562,o),
(394,564,c)
);
},
{
closed = 1;
nodes = (
(529,0,l),
(561,0,o),
(646,24,o),
(689,109,c),
(705,141,o),
(716,181,o),
(716,231,c),
(716,289,o),
(703,332,o),
(683,364,c),
(640,437,o),
(565,455,o),
(532,462,c),
(484,471,o),
(548,473,o),
(587,535,c),
(602,559,o),
(613,591,o),
(613,636,c),
(613,681,o),
(598,713,o),
(576,737,c),
(509,808,o),
(377,801,o),
(377,801,c),
(45,801,l),
(34,801,o),
(25,792,o),
(25,781,c),
(25,20,l),
(25,9,o),
(34,0,o),
(45,0,c)
);
},
{
closed = 1;
nodes = (
(191,689,l),
(190,692,o),
(193,693,o),
(195,691,c),
(321,564,o),
(382,241,o),
(370,76,c),
(370,72,o),
(365,72,o),
(364,75,c)
);
}
);
width = 741;
}
);
unicode = 66;
},
{
glyphname = C;
lastChange = "2024-01-29 16:41:44 +0000";
layers = (
{
layerId = m01;
shapes = (
{
closed = 1;
nodes = (
(444,380,ls),
(433,380,o),
(424,372,o),
(424,360,cs),
(423,275,o),
(428,189,o),
(434,104,cs),
(436,79,ls),
(436,73,o),
(432,68,o),
(426,67,cs),
(420,67,o),
(415,70,o),
(414,76,cs),
(412,86,o),
(410,96,o),
(409,106,cs),
(390,221,o),
(383,339,o),
(383,455,cs),
(383,481,ls),
(383,519,o),
(385,558,o),
(388,596,cs),
(390,616,o),
(391,638,o),
(393,659,cs),
(395,674,o),
(397,689,o),
(402,703,cs),
(404,711,o),
(409,720,o),
(419,723,cs),
(426,725,o),
(434,722,o),
(439,717,cs),
(445,712,o),
(448,706,o),
(450,700,cs),
(454,686,o),
(453,671,o),
(451,658,cs),
(447,637,o),
(444,615,o),
(442,593,cs),
(437,556,o),
(433,519,o),
(429,482,c),
(429,473,o),
(428,464,o),
(427,455,cs),
(427,449,o),
(427,443,o),
(426,437,cs),
(426,427,o),
(435,419,o),
(447,419,cs),
(793,419,ls),
(805,419,o),
(815,429,o),
(813,441,cs),
(792,652,o),
(603,817,o),
(419,817,cs),
(220,817,o),
(20,630,o),
(20,400,cs),
(20,168,o),
(220,-18,o),
(419,-18,cs),
(603,-18,o),
(791,145,o),
(813,357,cs),
(815,370,o),
(804,380,o),
(792,380,cs)
);
}
);
width = 833;
}
);
unicode = 67;
},
{
glyphname = D;
lastChange = "2024-01-25 22:16:53 +0000";
layers = (
{
layerId = m01;
shapes = (
{
closed = 1;
nodes = (
(414,77,o),
(409,81,o),
(408,86,cs),
(406,94,o),
(404,103,o),
(403,111,cs),
(380,226,o),
(354,338,o),
(316,448,cs),
(307,474,ls),
(295,509,o),
(280,543,o),
(265,578,cs),
(257,598,o),
(248,618,o),
(239,637,cs),
(234,649,o),
(228,663,o),
(229,678,cs),
(229,684,o),
(231,691,o),
(234,697,cs),
(238,702,o),
(245,707,o),
(253,707,cs),
(263,707,o),
(270,699,o),
(274,692,c),
(283,680,o),
(289,666,o),
(295,652,cs),
(303,632,o),
(309,612,o),
(316,592,cs),
(329,557,o),
(341,520,o),
(352,484,cs),
(354,476,o),
(357,467,o),
(359,459,cs),
(389,348,o),
(416,233,o),
(427,119,cs),
(430,88,ls),
(430,84,o),
(426,78,o),
(420,78,cs)
);
},
{
closed = 1;
nodes = (
(366,0,ls),
(558,0,o),
(730,177,o),
(730,398,cs),
(730,618,o),
(537,795,o),
(345,795,cs),
(20,795,l),
(20,0,l)
);
}
);
width = 730;
}
);
unicode = 68;
},
{
glyphname = E;
lastChange = "2024-01-30 19:27:45 +0000";
layers = (
{
layerId = m01;
shapes = (
{
closed = 1;
nodes = (
(165,160,o),
(148,157,o),
(130,159,cs),
(105,163,o),
(93,182,o),
(109,197,cs),
(117,205,o),
(132,210,o),
(147,214,cs),
(263,247,o),
(378,269,o),
(500,286,cs),
(530,290,o),
(561,294,o),
(592,296,cs),
(603,297,o),
(609,306,o),
(609,316,cs),
(609,484,ls),
(609,494,o),
(603,503,o),
(592,504,cs),
(561,506,o),
(530,510,o),
(500,514,cs),
(378,531,o),
(263,553,o),
(147,586,cs),
(132,590,o),
(117,595,o),
(109,603,cs),
(93,618,o),
(105,637,o),
(130,641,cs),
(148,644,o),
(165,640,o),
(183,634,cs),
(313,594,o),
(447,560,o),
(585,538,cs),
(599,536,o),
(609,545,o),
(609,559,cs),
(609,782,ls),
(609,793,o),
(601,802,o),
(590,802,cs),
(45,801,ls),
(34,801,o),
(26,792,o),
(26,783,cs),
(26,653,ls),
(26,503,o),
(47,427,o),
(183,402,c),
(46,377,o),
(25,301,o),
(25,151,cs),
(25,21,ls),
(25,12,o),
(33,3,o),
(44,3,cs),
(590,2,ls),
(601,2,o),
(609,11,o),
(609,22,cs),
(609,241,ls),
(609,255,o),
(599,264,o),
(585,262,cs),
(447,240,o),
(313,206,o),
(183,166,cs)
);
}
);
width = 648;
}
);
unicode = 69;
},
{
glyphname = Eacute;
lastChange = "2024-01-30 19:28:09 +0000";
layers = (
{
layerId = m01;
shapes = (
{
closed = 1;
nodes = (
(472,940,o),
(461,919,o),
(438,913,cs),
(265,865,ls),
(230,856,o),
(192,874,o),
(199,904,cs),
(215,969,o),
(310,1045,o),
(381,1059,cs),
(401,1064,o),
(419,1053,o),
(427,1036,cs),
(463,960,ls)
);
},
{
closed = 1;
nodes = (
(165,160,o),
(148,157,o),
(130,159,cs),
(105,163,o),
(93,182,o),
(109,197,cs),
(117,205,o),
(132,210,o),
(147,214,cs),
(263,247,o),
(378,269,o),
(500,286,cs),
(530,290,o),
(561,294,o),
(592,296,cs),
(603,297,o),
(609,306,o),
(609,316,cs),
(609,484,ls),
(609,494,o),
(603,503,o),
(592,504,cs),
(561,506,o),
(530,510,o),
(500,514,cs),
(378,531,o),
(263,553,o),
(147,586,cs),
(132,590,o),
(117,595,o),
(109,603,cs),
(93,618,o),
(105,637,o),
(130,641,cs),
(148,644,o),
(165,640,o),
(183,634,cs),
(313,594,o),
(447,560,o),
(585,538,cs),
(599,536,o),
(609,545,o),
(609,559,cs),
(609,782,ls),
(609,793,o),
(601,802,o),
(590,802,cs),
(45,801,ls),
(34,801,o),
(26,792,o),
(26,783,cs),
(26,653,ls),
(26,503,o),
(47,427,o),
(183,402,c),
(46,377,o),
(25,301,o),
(25,151,cs),
(25,21,ls),
(25,12,o),
(33,3,o),
(44,3,cs),
(590,2,ls),
(601,2,o),
(609,11,o),
(609,22,cs),
(609,241,ls),
(609,255,o),
(599,264,o),
(585,262,cs),
(447,240,o),
(313,206,o),
(183,166,cs)
);
}
);
width = 675;
}
);
unicode = 201;
},
{
glyphname = F;
lastChange = "2024-01-30 18:33:31 +0000";
layers = (
{
layerId = m01;
shapes = (
{
closed = 1;
nodes = (
(163,641,o),
(182,637,o),
(199,632,cs),
(302,601,o),
(416,578,o),
(524,557,cs),
(538,554,o),
(550,564,o),
(550,578,cs),
(550,780,ls),
(550,791,o),
(541,800,o),
(530,800,cs),
(45,799,ls),
(35,799,o),
(26,790,o),
(26,781,cs),
(26,651,ls),
(26,501,o),
(47,425,o),
(187,400,c),
(46,375,o),
(25,299,o),
(25,149,cs),
(25,19,ls),
(25,10,o),
(34,1,o),
(44,1,cs),
(332,0,ls),
(343,0,o),
(352,9,o),
(352,20,cs),
(353,272,ls),
(353,281,o),
(359,289,o),
(369,291,cs),
(420,300,o),
(471,308,o),
(524,315,cs),
(532,316,ls),
(542,317,o),
(550,325,o),
(550,335,cs),
(550,491,ls),
(550,502,o),
(542,511,o),
(531,511,cs),
(528,511,o),
(526,512,o),
(524,512,cs),
(398,529,o),
(280,551,o),
(161,584,cs),
(147,588,o),
(133,593,o),
(124,601,cs),
(107,616,o),
(119,635,o),
(145,639,cs)
);
}
);
width = 575;
}
);
unicode = 70;
},
{
glyphname = G;
lastChange = "2024-01-30 19:33:04 +0000";
layers = (
{
layerId = m01;
shapes = (
{
closed = 1;
nodes = (
(415,44,o),
(410,48,o),
(409,54,cs),
(407,64,o),
(405,75,o),
(404,85,cs),
(389,177,o),
(384,279,o),
(380,372,cs),
(379,396,l),
(390,389,o),
(402,383,o),
(415,380,c),
(416,379,o),
(416,377,o),
(416,375,cs),
(416,295,o),
(422,166,o),
(428,83,cs),
(428,74,o),
(429,66,o),
(430,57,cs),
(430,51,o),
(426,46,o),
(421,45,cs)
);
},
{
closed = 1;
nodes = (
(25,254,o),
(99,130,o),
(200,55,cs),
(265,7,o),
(340,-20,o),
(415,-20,cs),
(487,-20,o),
(561,5,o),
(624,48,cs),
(700,99,o),
(760,176,o),
(784,260,cs),
(794,294,o),
(805,336,o),
(792,372,cs),
(767,436,o),
(684,441,o),
(627,433,cs),
(564,424,o),
(496,396,o),
(432,408,cs),
(416,411,o),
(402,415,o),
(389,424,cs),
(379,431,l),
(379,482,ls),
(379,483,o),
(381,523,o),
(384,562,cs),
(386,585,o),
(386,622,o),
(389,644,cs),
(391,659,o),
(393,674,o),
(398,689,cs),
(400,698,o),
(405,708,o),
(415,710,cs),
(422,712,o),
(429,709,o),
(434,704,cs),
(440,699,o),
(443,693,o),
(445,686,cs),
(449,672,o),
(448,656,o),
(446,643,cs),
(442,621,o),
(439,583,o),
(436,560,cs),
(427,498,ls),
(425,485,o),
(435,474,o),
(448,474,cs),
(760,472,ls),
(774,472,o),
(785,484,o),
(782,498,cs),
(765,566,o),
(729,629,o),
(680,681,cs),
(609,759,o),
(514,811,o),
(415,811,cs),
(306,811,o),
(196,753,o),
(121,660,cs),
(63,588,o),
(25,496,o),
(25,395,cs)
);
}
);
width = 823;
}
);
unicode = 71;
},
{
glyphname = H;
lastChange = "2024-01-31 00:49:13 +0000";
layers = (
{
layerId = m01;
shapes = (
{
closed = 1;
nodes = (
(329,527,l),
(384,527,l),
(384,597,l),
(329,597,l)
);
},
{
closed = 1;
nodes = (
(0,20,ls),
(0,9,o),
(9,0,o),
(20,0,cs),
(307,0,ls),
(318,0,o),
(327,9,o),
(327,20,cs),
(327,780,ls),
(327,791,o),
(318,800,o),
(307,800,cs),
(20,800,ls),
(9,800,o),
(0,791,o),
(0,780,cs)
);
},
{
closed = 1;
nodes = (
(385,20,ls),
(385,9,o),
(394,0,o),
(405,0,cs),
(692,0,ls),
(703,0,o),
(712,9,o),
(712,20,cs),
(712,780,ls),
(712,791,o),
(703,800,o),
(692,800,cs),
(405,800,ls),
(394,800,o),
(385,791,o),
(385,780,cs)
);
}
);
width = 730;
}
);
unicode = 72;
},
{
glyphname = I;
lastChange = "2024-01-26 12:31:16 +0000";
layers = (
{
layerId = m01;
shapes = (
{
closed = 1;
nodes = (
(30,20,ls),
(30,9,o),
(39,0,o),
(50,0,cs),
(337,0,ls),
(348,0,o),
(357,9,o),
(357,20,cs),
(357,780,ls),
(357,791,o),
(348,800,o),
(337,800,cs),
(50,800,ls),
(39,800,o),
(30,791,o),
(30,780,cs)
);
}
);
width = 392;
}
);
unicode = 73;
},
{
glyphname = J;
lastChange = "2024-01-30 18:18:54 +0000";
layers = (
{
layerId = m01;
shapes = (
{
closed = 1;
nodes = (
(553,629,l),
(553,779,ls),
(553,790,o),
(544,799,o),
(533,799,cs),
(222,799,ls),
(209,799,o),
(199,789,o),
(201,775,cs),
(207,720,o),
(215,669,o),
(218,646,cs),
(228,591,o),
(238,537,o),
(249,482,cs),
(258,438,o),
(268,394,o),
(278,350,cs),
(291,298,o),
(306,247,o),
(321,196,cs),
(326,179,o),
(330,159,o),
(327,141,cs),
(323,116,o),
(304,103,o),
(289,121,cs),
(281,130,o),
(277,144,o),
(273,158,cs),
(260,204,o),
(248,250,o),
(239,296,cs),
(237,305,o),
(229,311,o),
(220,311,cs),
(27,311,ls),
(10,311,o),
(-2,301,o),
(0,287,cs),
(5,240,o),
(14,185,o),
(35,147,cs),
(61,99,o),
(100,50,o),
(164,15,cs),
(197,-3,o),
(250,-19,o),
(299,-19,cs),
(346,-19,o),
(411,9,o),
(445,38,cs),
(474,65,o),
(496,95,o),
(511,128,cs),
(546,196,o),
(554,315,o),
(554,391,cs)
);
}
);
width = 571;
}
);
unicode = 74;
},
{
glyphname = L;
lastChange = "2024-01-30 19:19:09 +0000";
layers = (
{
layerId = m01;
shapes = (
{
closed = 1;
nodes = (
(543,289,ls),
(543,301,o),
(533,311,o),
(521,310,cs),
(489,308,o),
(461,307,o),
(455,305,c),
(438,304,o),
(422,301,o),
(405,299,cs),
(349,288,ls),
(284,275,o),
(221,256,o),
(159,235,cs),
(143,230,o),
(120,228,o),
(107,241,cs),
(102,247,o),
(106,254,o),
(110,258,cs),
(123,271,o),
(142,274,o),
(158,280,cs),
(174,286,o),
(189,294,o),
(203,302,cs),
(231,319,o),
(257,340,o),
(278,365,cs),
(321,414,o),
(347,478,o),
(351,543,cs),
(351,549,o),
(351,554,o),
(351,559,cs),
(352,782,ls),
(352,793,o),
(343,802,o),
(332,802,cs),
(44,801,ls),
(34,801,o),
(25,792,o),
(25,783,cs),
(25,652,ls),
(25,501,o),
(16,425,o),
(157,400,c),
(17,374,o),
(26,299,o),
(26,147,cs),
(26,16,ls),
(26,7,o),
(35,-1,o),
(45,-1,cs),
(523,-2,ls),
(534,-2,o),
(543,7,o),
(543,18,cs)
);
}
);
width = 568;
}
);
unicode = 76;
},
{
glyphname = M;
lastChange = "2024-01-25 21:27:54 +0000";
layers = (
{
layerId = m01;
shapes = (
{
closed = 1;
nodes = (
(613,170,o),
(606,113,o),
(600,55,cs),
(596,24,o),
(604,0,o),
(617,0,cs),
(878,0,ls),
(889,0,o),
(898,9,o),
(898,20,cs),
(897,780,ls),
(897,791,o),
(888,800,o),
(877,800,cs),
(735,800,ls),
(572,800,o),
(489,635,o),
(462,482,c),
(434,634,o),
(351,799,o),
(188,799,cs),
(46,799,ls),
(35,799,o),
(26,790,o),
(26,779,cs),
(25,19,ls),
(25,8,o),
(34,-1,o),
(45,-1,cs),
(306,-1,ls),
(319,-1,o),
(328,9,o),
(327,23,cs),
(320,90,o),
(310,167,o),
(308,179,cs),
(287,331,o),
(250,481,o),
(207,624,cs),
(201,641,o),
(197,660,o),
(200,678,cs),
(204,704,o),
(224,716,o),
(239,699,cs),
(247,690,o),
(252,676,o),
(256,662,cs),
(313,445,o),
(339,248,o),
(351,18,cs),
(352,7,o),
(360,-1,o),
(371,-1,cs),
(552,0,ls),
(563,0,o),
(571,8,o),
(572,19,cs),
(584,249,o),
(610,446,o),
(667,663,cs),
(671,677,o),
(676,691,o),
(684,700,cs),
(699,717,o),
(719,705,o),
(723,679,cs),
(726,661,o),
(722,642,o),
(716,625,cs),
(673,482,o),
(636,332,o),
(615,180,cs)
);
}
);
width = 923;
}
);
unicode = 77;
},
{
color = 1;
glyphname = N;
lastChange = "2024-01-30 18:31:10 +0000";
layers = (
{
layerId = m01;
shapes = (
{
closed = 1;
nodes = (
(455,799,ls),
(443,799,o),
(434,790,o),
(434,778,cs),
(435,746,o),
(437,715,o),
(444,683,cs),
(452,646,o),
(463,616,o),
(465,610,cs),
(471,590,o),
(478,571,o),
(485,552,cs),
(496,522,o),
(508,492,o),
(520,462,cs),
(561,367,o),
(610,275,o),
(651,186,c),
(660,170,o),
(667,152,o),
(668,134,cs),
(669,113,o),
(658,98,o),
(644,101,c),
(640,101,o),
(636,103,o),
(631,107,cs),
(622,115,o),
(615,128,o),
(609,141,cs),
(600,162,ls),
(555,267,o),
(506,369,o),
(471,482,cs),
(417,659,ls),
(412,676,o),
(405,693,o),
(394,706,cs),
(374,731,o),
(351,753,o),
(323,771,cs),
(291,792,o),
(252,801,o),
(208,801,cs),
(45,801,ls),
(34,801,o),
(25,792,o),
(25,781,cs),
(25,19,ls),
(25,8,o),
(34,-1,o),
(45,-1,cs),
(285,0,ls),
(298,0,o),
(307,10,o),
(306,23,cs),
(298,92,o),
(288,176,o),
(286,188,cs),
(264,340,o),
(227,489,o),
(184,632,cs),
(179,649,o),
(175,669,o),
(178,687,cs),
(182,712,o),
(201,725,o),
(216,707,cs),
(224,698,o),
(229,684,o),
(233,670,cs),
(257,582,o),
(276,495,o),
(290,405,cs),
(302,346,o),
(313,289,o),
(320,242,cs),
(343,99,o),
(395,10,o),
(536,-8,cs),
(551,-10,o),
(575,-11,o),
(591,-11,cs),
(750,-11,ls),
(761,-11,o),
(770,-2,o),
(770,9,cs),
(770,779,ls),
(770,790,o),
(761,799,o),
(750,799,cs)
);
}
);
width = 795;
}
);
unicode = 78;
},
{
glyphname = O;
lastChange = "2024-01-30 19:33:08 +0000";
layers = (
{
layerId = m01;
shapes = (
{
closed = 1;
nodes = (
(433,116,o),
(434,102,o),
(430,89,cs),
(428,83,o),
(425,78,o),
(419,73,cs),
(414,69,o),
(406,66,o),
(399,68,cs),
(389,70,o),
(384,79,o),
(382,86,cs),
(377,100,o),
(375,113,o),
(373,128,cs),
(370,147,o),
(370,178,o),
(368,197,cs),
(365,232,o),
(363,268,o),
(363,304,cs),
(363,312,o),
(363,320,o),
(363,328,cs),
(363,436,o),
(370,556,o),
(389,662,cs),
(390,671,o),
(392,681,o),
(394,690,cs),
(395,695,o),
(400,699,o),
(406,698,cs),
(412,697,o),
(416,692,o),
(416,687,cs),
(415,679,o),
(414,672,o),
(414,664,cs),
(404,555,o),
(399,436,o),
(407,328,cs),
(408,320,o),
(408,311,o),
(409,303,cs),
(412,268,o),
(417,233,o),
(421,199,cs),
(424,180,o),
(427,148,o),
(431,129,cs)
);
},
{
closed = 1;
nodes = (
(0,166,o),
(180,-20,o),
(399,-20,cs),
(616,-20,o),
(796,166,o),
(796,398,cs),
(796,628,o),
(616,815,o),
(399,815,cs),
(180,815,o),
(0,628,o),
(0,398,cs)
);
}
);
width = 796;
}
);
unicode = 79;
},
{
glyphname = Q;
lastChange = "2024-01-25 17:31:43 +0000";
layers = (
{
layerId = m01;
shapes = (
{
closed = 1;
nodes = (
(637,43,o),
(471,-8,o),
(479,-7,c),
(421,-52,ls),
(366,-95,o),
(409,-152,o),
(445,-152,cs),
(790,-152,ls),
(816,-152,o),
(830,-138,o),
(830,-112,cs),
(830,-13,ls),
(830,15,o),
(813,29,o),
(786,23,cs),
(497,-38,l),
(602,23,ls)
);
},
{
closed = 1;
nodes = (
(462,660,o),
(459,625,o),
(456,603,cs),
(452,564,o),
(447,525,o),
(444,486,cs),
(443,477,o),
(443,467,o),
(442,458,cs),
(434,336,o),
(439,204,o),
(449,81,cs),
(449,72,o),
(450,64,o),
(451,55,cs),
(451,49,o),
(447,44,o),
(441,43,cs),
(435,42,o),
(430,46,o),
(429,52,cs),
(427,62,o),
(425,73,o),
(424,83,cs),
(405,203,o),
(398,337,o),
(398,458,cs),
(398,467,o),
(398,476,o),
(398,485,cs),
(398,525,o),
(400,565,o),
(403,605,cs),
(405,627,o),
(405,661,o),
(408,683,cs),
(410,699,o),
(412,714,o),
(417,729,cs),
(419,738,o),
(424,748,o),
(434,750,cs),
(441,752,o),
(449,749,o),
(454,744,cs),
(460,739,o),
(463,733,o),
(465,726,cs),
(469,712,o),
(468,696,o),
(466,682,cs)
);
},
{
closed = 1;
nodes = (
(35,166,o),
(235,-20,o),
(434,-20,cs),
(631,-20,o),
(831,166,o),
(831,398,cs),
(831,628,o),
(631,815,o),
(434,815,cs),
(235,815,o),
(35,628,o),
(35,398,cs)
);
}
);
width = 866;
}
);
unicode = 81;
},
{
glyphname = R;
lastChange = "2024-01-25 22:24:53 +0000";
layers = (
{
layerId = m01;
shapes = (
{
closed = 1;
nodes = (
(209,731,ls),
(208,732,o),
(208,732,o),
(208,733,cs),
(208,734,ls),
(208,737,o),
(215,736,o),
(220,735,cs),
(314,714,o),
(415,617,o),
(430,562,c),
(430,560,o),
(427,558,o),
(425,559,c)
);
},
{
closed = 1;
nodes = (
(25,10,o),
(34,1,o),
(45,1,cs),
(348,1,ls),
(363,1,o),
(373,14,o),
(370,28,cs),
(236,625,l),
(236,627,o),
(239,628,o),
(240,626,cs),
(281,543,o),
(316,458,o),
(348,370,cs),
(366,319,o),
(385,269,o),
(397,216,cs),
(411,155,o),
(413,88,o),
(401,27,cs),
(398,12,o),
(408,0,o),
(423,0,cs),
(709,0,ls),
(719,0,o),
(727,7,o),
(728,17,cs),
(740,111,o),
(730,200,o),
(684,277,cs),
(650,333,o),
(605,371,o),
(556,402,cs),
(481,451,l),
(492,454,o),
(504,458,o),
(515,462,cs),
(592,489,o),
(645,552,o),
(645,635,cs),
(645,814,o),
(408,800,o),
(408,800,c),
(45,800,ls),
(34,800,o),
(25,791,o),
(25,780,cs),
(25,21,ls)
);
}
);
width = 723;
}
);
unicode = 82;
},
{
glyphname = S;
lastChange = "2024-01-30 18:32:46 +0000";
layers = (
{
layerId = m01;
shapes = (
{
closed = 1;
nodes = (
(562,541,o),
(426,598,o),
(329,638,cs),
(261,666,o),
(262,673,o),
(193,696,cs),
(180,701,o),
(186,720,o),
(199,717,cs),
(209,715,o),
(219,713,o),
(229,709,cs),
(588,562,ls),
(635,543,o),
(681,576,o),
(681,627,cs),
(681,779,ls),
(681,790,o),
(671,800,o),
(660,800,cs),
(160,798,ls),
(20,797,o),
(-6,586,o),
(85,514,c),
(103,490,o),
(143,473,o),
(168,457,cs),
(280,386,o),
(395,319,o),
(501,240,cs),
(528,219,o),
(581,187,o),
(592,152,cs),
(596,136,o),
(588,125,o),
(570,124,cs),
(533,122,o),
(503,167,o),
(478,189,cs),
(371,281,ls),
(308,335,o),
(246,382,o),
(175,425,cs),
(159,435,o),
(139,436,o),
(122,426,cs),
(73,394,o),
(35,350,o),
(26,290,cs),
(18,230,o),
(44,170,o),
(81,123,cs),
(121,73,o),
(176,35,o),
(237,10,cs),
(293,-12,o),
(353,-23,o),
(413,-20,cs),
(478,-16,o),
(542,3,o),
(595,41,cs),
(662,89,o),
(713,162,o),
(727,243,cs),
(741,328,o),
(706,399,o),
(648,456,cs)
);
}
);
width = 755;
}
);
unicode = 83;
},
{
glyphname = T;
lastChange = "2024-01-30 19:29:23 +0000";
layers = (
{
layerId = m01;
shapes = (
{
closed = 1;
nodes = (
(5,511,ls),
(5,499,o),
(15,489,o),
(27,490,cs),
(59,492,o),
(87,493,o),
(93,495,c),
(110,496,o),
(126,498,o),
(143,501,cs),
(199,512,ls),
(264,525,o),
(327,544,o),
(389,565,cs),
(405,570,o),
(428,572,o),
(441,559,cs),
(446,553,o),
(442,546,o),
(438,542,cs),
(425,529,o),
(406,526,o),
(390,520,cs),
(374,514,o),
(359,506,o),
(345,498,cs),
(317,481,o),
(291,460,o),
(270,435,cs),
(227,386,o),
(201,322,o),
(197,257,cs),
(197,251,o),
(197,246,o),
(197,241,cs),
(196,18,ls),
(196,7,o),
(205,-2,o),
(216,-2,cs),
(504,-1,ls),
(514,-1,o),
(523,8,o),
(523,17,cs),
(523,148,ls),
(523,299,o),
(532,375,o),
(391,400,c),
(531,426,o),
(522,501,o),
(522,653,cs),
(522,784,ls),
(522,793,o),
(513,801,o),
(503,801,cs),
(25,802,ls),
(14,802,o),
(5,793,o),
(5,782,cs)
);
}
);
width = 752;
}
);
unicode = 84;
},
{
glyphname = U;
lastChange = "2024-01-25 21:45:47 +0000";
layers = (
{
layerId = m01;
shapes = (
{
closed = 1;
nodes = (
(399,799,ls),
(388,799,o),
(380,791,o),
(379,780,cs),
(377,750,ls),
(374,707,o),
(371,664,o),
(369,621,cs),
(366,540,o),
(368,459,o),
(373,380,cs),
(375,335,o),
(378,290,o),
(383,245,cs),
(391,168,ls),
(393,152,o),
(394,134,o),
(390,118,cs),
(388,111,o),
(384,104,o),
(379,98,cs),
(374,92,o),
(366,88,o),
(358,90,cs),
(348,93,o),
(344,104,o),
(341,114,cs),
(337,130,o),
(335,148,o),
(333,166,cs),
(331,191,o),
(331,217,o),
(330,242,cs),
(327,288,o),
(326,334,o),
(326,380,cs),
(326,471,o),
(331,563,o),
(340,654,cs),
(343,685,o),
(346,717,o),
(350,749,cs),
(351,758,o),
(351,767,o),
(352,775,cs),
(354,789,o),
(344,800,o),
(331,800,cs),
(45,800,ls),
(34,800,o),
(25,791,o),
(25,780,cs),
(25,377,l),
(26,316,ls),
(30,99,o),
(180,-17,o),
(359,-18,cs),
(539,-19,o),
(685,99,o),
(692,316,cs),
(694,377,l),
(694,779,ls),
(694,790,o),
(685,799,o),
(674,799,cs)
);
}
);
width = 719;
}
);
unicode = 85;
},
{
glyphname = V;
lastChange = "2024-01-29 16:49:49 +0000";
layers = (
{
layerId = m01;
shapes = (
{
closed = 1;
nodes = (
(377,733,o),
(380,700,o),
(383,666,cs),
(392,572,o),
(396,477,o),
(397,383,cs),
(397,336,o),
(396,289,o),
(393,242,cs),
(392,216,o),
(392,190,o),
(389,164,cs),
(388,146,o),
(386,127,o),
(381,110,cs),
(379,100,o),
(374,88,o),
(365,85,cs),
(357,83,o),
(349,87,o),
(344,93,cs),
(338,100,o),
(335,107,o),
(333,114,cs),
(328,131,o),
(330,150,o),
(332,166,cs),
(335,192,o),
(337,218,o),
(340,245,cs),
(344,292,o),
(348,337,o),
(350,383,cs),
(355,466,o),
(356,550,o),
(354,632,cs),
(352,677,o),
(349,722,o),
(346,766,cs),
(346,772,o),
(345,778,o),
(345,783,cs),
(345,793,o),
(336,800,o),
(325,800,cs),
(21,800,ls),
(9,800,o),
(0,791,o),
(0,779,cs),
(1,660,o),
(4,530,o),
(30,416,cs),
(57,297,o),
(102,177,o),
(181,85,cs),
(224,35,o),
(296,-20,o),
(363,-20,cs),
(429,-20,o),
(501,33,o),
(545,85,cs),
(624,177,o),
(670,297,o),
(697,416,cs),
(723,530,o),
(725,660,o),
(727,779,cs),
(727,791,o),
(718,800,o),
(706,800,cs),
(393,800,ls),
(380,800,o),
(371,790,o),
(372,776,cs),
(372,772,o),
(373,769,o),
(373,765,cs)
);
}
);
width = 727;
}
);
unicode = 86;
},
{
glyphname = W;
lastChange = "2024-01-26 12:19:47 +0000";
layers = (
{
annotations = (
{
pos = (439.695,661.312);
type = Text;
},
{
pos = (295,893);
type = Text;
}
);
layerId = m01;
shapes = (
{
closed = 1;
nodes = (
(695,468,o),
(733,318,o),
(776,174,cs),
(782,157,o),
(786,138,o),
(783,120,cs),
(779,94,o),
(759,82,o),
(744,99,cs),
(736,108,o),
(731,122,o),
(727,136,cs),
(669,354,o),
(643,551,o),
(631,782,cs),
(630,793,o),
(622,801,o),
(611,801,cs),
(430,802,ls),
(419,802,o),
(411,794,o),
(410,783,cs),
(398,552,o),
(372,355,o),
(314,137,cs),
(310,123,o),
(305,109,o),
(297,100,cs),
(282,83,o),
(262,95,o),
(258,121,cs),
(255,139,o),
(259,158,o),
(265,175,cs),
(308,319,o),
(346,469,o),
(367,622,cs),
(369,634,o),
(379,711,o),
(386,778,cs),
(387,792,o),
(378,802,o),
(365,802,cs),
(46,802,ls),
(34,802,o),
(24,791,o),
(25,779,cs),
(83,18,ls),
(84,8,o),
(92,0,o),
(102,0,cs),
(246,0,ls),
(410,0,o),
(493,165,o),
(521,318,c),
(548,164,o),
(631,-1,o),
(795,-1,cs),
(939,-1,ls),
(949,-1,o),
(957,7,o),
(958,17,cs),
(1016,778,ls),
(1017,790,o),
(1007,801,o),
(995,801,cs),
(676,801,ls),
(663,801,o),
(654,791,o),
(655,777,cs),
(662,710,o),
(672,633,o),
(674,621,cs)
);
}
);
width = 1041;
}
);
unicode = 87;
},
{
glyphname = X;
lastChange = "2024-01-29 16:32:01 +0000";
layers = (
{
layerId = m01;
shapes = (
{
closed = 1;
nodes = (
(419,658,o),
(428,576,o),
(417,500,cs),
(416,490,o),
(414,481,o),
(412,472,cs),
(409,459,o),
(408,445,o),
(397,436,cs),
(387,428,o),
(371,430,o),
(362,440,cs),
(352,450,o),
(353,465,o),
(355,479,cs),
(357,488,o),
(360,497,o),
(361,505,cs),
(366,532,o),
(370,559,o),
(373,585,cs),
(378,629,o),
(379,673,o),
(377,716,cs),
(375,738,o),
(372,761,o),
(369,784,cs),
(369,788,o),
(368,791,o),
(368,793,cs),
(368,798,o),
(359,802,o),
(348,802,cs),
(36,802,ls),
(24,802,o),
(15,797,o),
(15,791,cs),
(16,728,o),
(19,663,o),
(45,602,cs),
(72,542,o),
(117,479,o),
(195,431,cs),
(238,405,o),
(319,378,o),
(386,378,cs),
(452,378,o),
(533,405,o),
(577,431,cs),
(655,479,o),
(701,542,o),
(728,602,cs),
(754,663,o),
(756,728,o),
(758,791,cs),
(758,797,o),
(749,802,o),
(737,802,cs),
(416,802,ls),
(403,802,o),
(394,797,o),
(395,790,cs),
(395,788,o),
(396,786,o),
(396,784,c),
(400,767,o),
(403,749,o),
(406,732,cs)
);
},
{
closed = 1;
nodes = (
(396,17,o),
(395,15,o),
(395,13,cs),
(394,6,o),
(403,1,o),
(416,1,cs),
(737,1,ls),
(749,1,o),
(758,6,o),
(758,12,cs),
(756,75,o),
(754,140,o),
(728,201,cs),
(701,261,o),
(655,324,o),
(577,372,cs),
(533,398,o),
(452,425,o),
(386,425,cs),
(319,425,o),
(238,398,o),
(195,372,cs),
(117,324,o),
(72,261,o),
(45,201,cs),
(19,140,o),
(16,75,o),
(15,12,cs),
(15,6,o),
(24,1,o),
(36,1,cs),
(348,1,ls),
(359,1,o),
(368,5,o),
(368,10,cs),
(368,12,o),
(369,15,o),
(369,19,cs),
(372,42,o),
(375,65,o),
(377,87,cs),
(379,130,o),
(378,174,o),
(373,218,cs),
(370,244,o),
(366,271,o),
(361,298,cs),
(360,306,o),
(357,315,o),
(355,324,cs),
(353,338,o),
(352,353,o),
(362,363,cs),
(371,373,o),
(387,375,o),
(397,367,cs),
(408,358,o),
(409,344,o),
(412,331,cs),
(414,322,o),
(416,313,o),
(417,303,cs),
(428,227,o),
(419,145,o),
(406,71,cs),
(403,54,o),
(400,36,o),
(396,19,c)
);
}
);
width = 773;
}
);
unicode = 88;
},
{
glyphname = Y;
lastChange = "2024-01-30 19:54:12 +0000";
layers = (
{
layerId = m01;
shapes = (
{
closed = 1;
nodes = (
(418,799,ls),
(406,799,o),
(396,790,o),
(397,777,cs),
(399,727,o),
(401,677,o),
(402,626,cs),
(402,580,o),
(401,534,o),
(398,488,cs),
(397,463,o),
(396,438,o),
(394,412,cs),
(393,394,o),
(390,376,o),
(386,359,cs),
(384,349,o),
(379,338,o),
(370,335,cs),
(362,333,o),
(354,337,o),
(349,343,cs),
(343,349,o),
(340,356,o),
(338,364,cs),
(333,380,o),
(335,398,o),
(336,414,cs),
(345,492,ls),
(349,536,o),
(352,581,o),
(355,626,cs),
(358,676,o),
(360,727,o),
(360,778,cs),
(360,790,o),
(350,799,o),
(339,799,cs),
(45,799,ls),
(33,799,o),
(25,794,o),
(25,786,cs),
(26,708,o),
(29,624,o),
(54,550,cs),
(79,473,o),
(121,395,o),
(196,334,cs),
(237,303,o),
(304,268,o),
(367,268,cs),
(430,268,o),
(499,302,o),
(539,334,cs),
(555,347,l),
(560,353,o),
(570,348,o),
(568,343,c),
(568,341,l),
(543,300,o),
(513,271,o),
(454,249,cs),
(415,236,o),
(371,228,o),
(328,223,cs),
(274,220,o),
(192,233,o),
(132,244,cs),
(90,253,o),
(52,237,o),
(50,207,cs),
(48,158,o),
(62,108,o),
(96,65,cs),
(124,31,o),
(171,0,o),
(224,-13,cs),
(254,-21,o),
(292,-22,o),
(329,-18,cs),
(379,-12,o),
(429,2,o),
(460,22,cs),
(530,64,o),
(576,125,o),
(609,194,cs),
(643,265,o),
(662,346,o),
(677,424,cs),
(686,476,o),
(694,528,o),
(700,580,cs),
(707,648,o),
(711,717,o),
(711,786,cs),
(711,794,o),
(702,799,o),
(691,799,cs)
);
}
);
width = 711;
}
);
unicode = 89;
},
{
color = 1;
glyphname = Z;
lastChange = "2024-01-31 01:00:16 +0000";
layers = (
{
layerId = m01;
shapes = (
{
closed = 1;
nodes = (
(646,351,ls),
(646,363,o),
(640,373,o),
(630,373,cs),
(606,372,o),
(582,370,o),
(558,362,cs),
(529,354,o),
(506,343,o),
(502,341,cs),
(486,334,o),
(472,327,o),
(457,320,cs),
(433,308,o),
(411,296,o),
(388,283,cs),
(315,240,o),
(244,189,o),
(176,146,c),
(164,137,o),
(150,130,o),
(136,129,cs),
(120,127,o),
(109,139,o),
(111,154,c),
(111,158,o),
(113,162,o),
(115,167,cs),
(122,177,o),
(131,184,o),
(142,190,cs),
(157,200,ls),
(239,247,o),
(317,298,o),
(404,334,cs),
(539,391,ls),
(552,396,o),
(565,403,o),
(575,415,cs),
(594,436,o),
(612,460,o),
(625,489,cs),
(641,522,o),
(648,563,o),
(648,609,cs),
(648,779,ls),
(648,791,o),
(641,800,o),
(633,800,cs),
(48,800,ls),
(40,800,o),
(32,791,o),
(32,779,cs),
(33,528,ls),
(33,515,o),
(41,506,o),
(51,507,cs),
(104,515,o),
(169,525,o),
(178,527,cs),
(295,550,o),
(408,589,o),
(518,634,cs),
(531,639,o),
(546,643,o),
(560,640,cs),
(580,636,o),
(589,616,o),
(576,601,cs),
(569,592,o),
(558,587,o),
(547,583,cs),
(480,558,o),
(413,538,o),
(344,523,cs),
(299,511,o),
(255,499,o),
(219,492,cs),
(109,468,o),
(41,414,o),
(27,266,cs),
(26,251,o),
(25,226,o),
(25,209,cs),
(25,43,ls),
(25,31,o),
(32,22,o),
(40,22,cs),
(631,22,ls),
(640,22,o),
(646,31,o),
(646,43,cs)
);
}
);
width = 718;
}
);
unicode = 90;
},
{
glyphname = E.001;
lastChange = "2024-01-30 19:23:18 +0000";
layers = (
{
layerId = m01;
shapes = (
{
closed = 1;
nodes = (
(144,196,o),
(125,192,o),
(107,195,c),
(82,199,o),
(69,218,o),
(86,233,c),
(95,241,o),
(110,246,o),
(124,250,c),
(243,283,o),
(361,305,o),
(486,321,c),
(523,326,o),
(561,331,o),
(598,334,c),
(598,477,l),
(561,481,o),
(523,485,o),
(486,490,c),
(361,507,o),
(243,529,o),
(124,562,c),
(110,566,o),
(95,571,o),
(86,579,c),
(69,594,o),
(82,613,o),
(107,617,c),
(125,619,o),
(144,615,o),
(162,610,c),
(302,568,o),
(448,531,o),
(598,509,c),
(598,807,l),
(20,806,l),
(10,806,o),
(1,797,o),
(1,788,c),
(1,658,l),
(1,508,o),
(22,432,o),
(162,407,c),
(21,382,o),
(0,306,o),
(0,156,c),
(0,26,l),
(0,17,o),
(9,8,o),
(19,8,c),
(598,7,l),
(598,302,l),
(448,280,o),
(302,243,o),
(162,201,c)
);
}
);
width = 648;
}
);
},
{
glyphname = E.002;
lastChange = "2024-01-30 19:26:38 +0000";
layers = (
{
layerId = m01;
shapes = (
{
closed = 1;
nodes = (
(145,219,o),
(125,215,o),
(107,218,cs),
(82,222,o),
(69,241,o),
(87,256,cs),
(96,264,o),
(110,269,o),
(124,273,cs),
(243,306,o),
(361,328,o),
(487,345,cs),
(518,348,o),
(549,352,o),
(580,355,cs),
(591,356,o),
(598,365,o),
(598,375,cs),
(598,423,ls),
(598,433,o),
(591,442,o),
(580,443,cs),
(549,445,o),
(518,449,o),
(487,453,cs),
(361,470,o),
(243,492,o),
(124,525,cs),
(110,529,o),
(96,534,o),
(87,542,cs),
(69,557,o),
(82,576,o),
(107,580,cs),
(125,582,o),
(145,578,o),
(162,573,cs),
(295,533,o),
(433,499,o),
(573,476,cs),
(587,474,o),
(598,483,o),
(598,497,cs),
(598,780,ls),
(598,791,o),
(589,800,o),
(578,800,cs),
(20,799,ls),
(10,799,o),
(1,790,o),
(1,781,cs),
(1,651,ls),
(1,501,o),
(22,425,o),
(162,400,c),
(21,375,o),
(0,299,o),
(0,149,cs),
(0,19,ls),
(0,10,o),
(9,1,o),
(19,1,cs),
(578,0,ls),
(589,0,o),
(598,9,o),
(598,20,cs),
(598,300,ls),
(598,314,o),
(587,323,o),
(573,321,cs),
(433,299,o),
(295,265,o),
(162,224,cs)
);
}
);
width = 648;
}
);
},
{
glyphname = c;
lastChange = "2024-01-29 19:00:30 +0000";
layers = (
{
layerId = m01;
shapes = (
{
closed = 1;
nodes = (
(322,284,ls),
(313,284,o),
(307,278,o),
(307,270,cs),
(306,204,o),
(310,139,o),
(314,74,cs),
(315,56,ls),
(315,52,o),
(312,48,o),
(308,47,cs),
(304,47,o),
(300,49,o),
(299,54,cs),
(298,61,o),
(296,68,o),
(296,77,cs),
(281,164,o),
(276,253,o),
(276,342,cs),
(276,361,ls),
(276,391,o),
(277,420,o),
(279,448,cs),
(281,464,o),
(281,480,o),
(284,497,cs),
(285,508,o),
(287,519,o),
(291,531,cs),
(292,536,o),
(296,543,o),
(303,545,cs),
(308,547,o),
(314,544,o),
(318,541,cs),
(323,537,o),
(325,533,o),
(327,528,cs),
(330,517,o),
(329,506,o),
(327,497,cs),
(324,479,o),
(322,463,o),
(320,446,cs),
(316,419,o),
(313,391,o),
(310,362,c),
(310,355,o),
(310,349,o),
(309,342,cs),
(309,337,o),
(309,332,o),
(308,328,cs),
(308,321,o),
(315,315,o),
(324,315,cs),
(588,315,ls),
(596,315,o),
(604,322,o),
(602,331,cs),
(587,492,o),
(454,617,o),
(303,617,cs),
(131,617,o),
(0,474,o),
(0,301,cs),
(0,124,o),
(131,-18,o),
(303,-18,cs),
(454,-18,o),
(586,105,o),
(602,267,cs),
(604,277,o),
(596,284,o),
(587,284,cs)
);
}
);
width = 602;
}
);
unicode = 99;
},
{
glyphname = e;
lastChange = "2024-01-31 01:02:46 +0000";
layers = (
{
guides = (
{
pos = (240,60);
}
);
layerId = m01;
shapes = (
{
closed = 1;
nodes = (
(286,379,ls),
(286,409,o),
(287,438,o),
(289,466,cs),
(291,482,o),
(291,498,o),
(294,515,cs),
(295,526,o),
(297,537,o),
(301,549,cs),
(302,554,o),
(306,561,o),
(313,563,cs),
(318,565,o),
(324,562,o),
(328,559,cs),
(333,555,o),
(335,551,o),
(337,546,cs),
(340,535,o),
(339,524,o),
(337,515,cs),
(334,497,o),
(332,481,o),
(330,464,cs),
(326,437,o),
(322,392,o),
(319,363,c),
(315,362,o),
(311,362,o),
(311,362,c),
(302,360,o),
(294,357,o),
(286,353,c)
);
},
{
closed = 1;
nodes = (
(10,122,o),
(141,-20,o),
(313,-20,cs),
(474,-20,o),
(596,103,o),
(612,265,c),
(614,275,o),
(606,282,o),
(597,282,cs),
(332,282,ls),
(323,282,o),
(317,276,o),
(317,268,cs),
(316,202,o),
(320,137,o),
(324,72,cs),
(325,54,ls),
(325,50,o),
(322,46,o),
(318,45,cs),
(314,45,o),
(310,47,o),
(309,52,cs),
(308,59,o),
(306,66,o),
(306,75,c),
(293,152,o),
(287,231,o),
(286,310,c),
(290,312,ls),
(301,318,o),
(312,321,o),
(324,323,cs),
(375,331,o),
(428,312,o),
(478,306,cs),
(523,301,o),
(588,304,o),
(608,347,cs),
(618,371,o),
(609,399,o),
(601,421,cs),
(582,477,o),
(535,531,o),
(475,565,cs),
(424,595,o),
(372,615,o),
(313,615,cs),
(141,615,o),
(10,472,o),
(10,299,cs)
);
}
);
width = 622;
}
);
unicode = 101;
},
{
glyphname = eacute;
lastChange = "2024-01-29 16:49:00 +0000";
layers = (
{
layerId = m01;
shapes = (
{
closed = 1;
nodes = (
(466,730,o),
(455,709,o),
(432,703,cs),
(259,655,ls),
(224,645,o),
(186,664,o),
(193,694,cs),
(209,759,o),
(304,835,o),
(375,849,cs),
(395,854,o),
(413,843,o),
(421,826,cs),
(457,750,ls)
);
},
{
closed = 1;
nodes = (
(300,379,ls),
(300,409,o),
(301,438,o),
(303,466,cs),
(305,482,o),
(305,498,o),
(308,515,cs),
(309,526,o),
(311,537,o),
(315,549,cs),
(316,554,o),
(320,561,o),
(327,563,cs),
(332,565,o),
(338,562,o),
(342,559,cs),
(347,555,o),
(349,551,o),
(351,546,cs),
(354,535,o),
(353,524,o),
(351,515,cs),
(348,497,o),
(346,481,o),
(344,464,cs),
(340,437,o),
(336,392,o),
(333,363,c),
(329,362,o),
(325,362,o),
(325,362,c),
(316,360,o),
(308,357,o),
(300,353,c)
);
},
{
closed = 1;
nodes = (
(25,122,o),
(176,-20,o),
(328,-20,cs),
(469,-20,o),
(611,103,o),
(627,265,c),
(629,275,o),
(621,282,o),
(612,282,cs),
(347,282,ls),
(338,282,o),
(332,276,o),
(332,268,cs),
(331,202,o),
(335,137,o),
(339,72,cs),
(340,54,ls),
(340,50,o),
(337,46,o),
(333,45,cs),
(329,45,o),
(325,47,o),
(324,52,cs),
(323,59,o),
(321,66,o),
(321,75,c),
(308,152,o),
(302,231,o),
(301,310,c),
(305,312,ls),
(316,318,o),
(327,321,o),
(339,323,cs),
(390,331,o),
(443,312,o),
(493,306,cs),
(538,301,o),
(603,304,o),
(623,347,cs),
(633,371,o),
(624,399,o),
(616,421,cs),
(597,477,o),
(550,528,o),
(490,562,cs),
(485,565,o),
(480,568,o),
(475,570,c),
(430,599,o),
(379,615,o),
(328,615,cs),
(176,615,o),
(25,472,o),
(25,299,cs)
);
}
);
width = 652;
}
);
unicode = 233;
},
{
glyphname = g;
lastChange = "2024-01-29 17:40:50 +0000";
layers = (
{
layerId = m01;
shapes = (
{
closed = 1;
nodes = (
(356,105,o),
(356,93,o),
(353,84,cs),
(352,79,o),
(350,75,o),
(345,72,cs),
(341,68,o),
(335,66,o),
(330,67,cs),
(322,69,o),
(318,76,o),
(317,82,cs),
(313,92,o),
(311,102,o),
(310,113,cs),
(308,128,o),
(308,151,o),
(306,167,cs),
(304,195,o),
(302,222,o),
(302,249,cs),
(302,255,o),
(302,261,o),
(302,268,cs),
(302,351,o),
(308,443,o),
(322,525,cs),
(323,533,o),
(324,539,o),
(326,547,cs),
(327,551,o),
(331,554,o),
(335,553,cs),
(340,552,o),
(343,548,o),
(343,545,cs),
(342,538,o),
(341,534,o),
(341,527,cs),
(334,442,o),
(330,351,o),
(336,268,cs),
(337,261,o),
(337,255,o),
(337,248,cs),
(340,222,o),
(344,195,o),
(347,169,cs),
(349,153,o),
(351,129,o),
(354,114,cs)
);
},
{
closed = 1;
nodes = (
(25,122,o),
(178,-20,o),
(330,-20,cs),
(480,-20,o),
(633,122,o),
(633,299,cs),
(633,475,o),
(480,617,o),
(330,617,cs),
(178,617,o),
(25,475,o),
(25,299,cs)
);
}
);
width = 658;
}
);
unicode = 103;
},
{
glyphname = h;
lastChange = "2024-01-29 20:17:53 +0000";
layers = (
{
layerId = m01;
shapes = (
{
closed = 1;
nodes = (
(393,623,o),
(323,497,o),
(309,440,c),
(312,879,ls),
(312,891,o),
(303,900,o),
(291,900,cs),
(45,900,ls),
(34,900,o),
(25,891,o),
(25,880,cs),
(25,20,ls),
(25,9,o),
(34,0,o),
(45,0,cs),
(274,0,ls),
(285,0,o),
(293,8,o),
(294,19,cs),
(295,42,o),
(296,63,o),
(298,86,cs),
(301,133,o),
(306,180,o),
(313,226,cs),
(327,321,o),
(347,409,o),
(378,498,cs),
(382,509,o),
(387,519,o),
(394,526,cs),
(409,539,o),
(428,529,o),
(432,510,cs),
(435,496,o),
(432,482,o),
(427,469,cs),
(397,388,o),
(372,306,o),
(353,223,cs),
(343,178,o),
(334,132,o),
(327,86,cs),
(324,66,o),
(321,45,o),
(319,24,cs),
(317,10,o),
(327,0,o),
(340,0,cs),
(611,0,ls),
(622,0,o),
(631,9,o),
(631,20,cs),
(633,386,ls),
(634,516,o),
(598,623,o),
(465,623,cs)
);
}
);
width = 658;
}
);
unicode = 104;
},
{
glyphname = i;
lastChange = "2024-01-29 16:53:18 +0000";
layers = (
{
layerId = m01;
shapes = (
{
closed = 1;
nodes = (
(109,851,o),
(38,802,o),
(38,742,cs),
(38,684,o),
(109,635,o),
(165,635,cs),
(220,635,o),
(291,684,o),
(291,742,cs),
(291,802,o),
(220,851,o),
(165,851,cs)
);
},
{
closed = 1;
nodes = (
(25,20,ls),
(25,9,o),
(34,0,o),
(45,0,cs),
(274,0,ls),
(285,0,o),
(294,9,o),
(294,20,cs),
(294,580,ls),
(294,591,o),
(285,600,o),
(274,600,cs),
(45,600,ls),
(34,600,o),
(25,591,o),
(25,580,cs)
);
}
);
width = 319;
}
);
unicode = 105;
},
{
glyphname = j;
lastChange = "2024-01-30 15:40:15 +0000";
layers = (
{
layerId = m01;
shapes = (
{
closed = 1;
nodes = (
(131,851,o),
(60,802,o),
(60,742,cs),
(60,684,o),
(131,635,o),
(187,635,cs),
(242,635,o),
(313,684,o),
(313,742,cs),
(313,802,o),
(242,851,o),
(187,851,cs)
);
},
{
closed = 1;
nodes = (
(335,247,l),
(335,579,ls),
(335,592,o),
(327,600,o),
(315,600,cs),
(55,600,ls),
(42,600,o),
(32,589,o),
(34,576,cs),
(59,388,ls),
(71,295,o),
(85,203,o),
(101,111,cs),
(115,32,o),
(130,-46,o),
(149,-122,cs),
(153,-141,o),
(157,-164,o),
(154,-183,cs),
(151,-214,o),
(134,-227,o),
(119,-208,cs),
(112,-197,o),
(108,-182,o),
(105,-165,cs),
(98,-130,o),
(91,-97,o),
(85,-63,cs),
(83,-53,o),
(75,-47,o),
(66,-47,cs),
(-76,-47,ls),
(-89,-47,o),
(-99,-57,o),
(-97,-70,cs),
(-93,-113,o),
(-86,-164,o),
(-69,-199,cs),
(-49,-244,o),
(-18,-289,o),
(33,-321,cs),
(60,-338,o),
(102,-353,o),
(141,-353,cs),
(178,-353,o),
(222,-327,o),
(249,-300,cs),
(272,-275,o),
(290,-247,o),
(302,-217,cs),
(330,-154,o),
(336,-44,o),
(336,27,cs)
);
}
);
width = 361;
}
);
unicode = 106;
},
{
glyphname = l;
lastChange = "2024-01-30 15:16:56 +0000";
layers = (
{
layerId = m01;
shapes = (
{
closed = 1;
nodes = (
(25,30,ls),
(25,14,o),
(34,0,o),
(45,0,cs),
(274,0,ls),
(285,0,o),
(294,14,o),
(294,30,cs),
(294,870,ls),
(294,887,o),
(285,900,o),
(274,900,cs),
(45,900,ls),
(34,900,o),
(25,887,o),
(25,870,cs)
);
}
);
width = 319;
}
);
unicode = 108;
},
{
glyphname = m;
lastChange = "2024-01-30 15:25:58 +0000";
layers = (
{
layerId = m01;
shapes = (
{
closed = 1;
nodes = (
(767,581,o),
(708,616,o),
(652,621,cs),
(592,627,o),
(532,600,o),
(485,565,cs),
(472,555,o),
(460,545,o),
(450,532,cs),
(446,527,o),
(430,506,o),
(428,495,c),
(426,506,o),
(409,527,o),
(405,532,cs),
(396,545,o),
(383,555,o),
(371,565,cs),
(324,600,o),
(264,627,o),
(204,621,cs),
(148,616,o),
(88,581,o),
(58,533,cs),
(29,486,o),
(25,427,o),
(25,373,cs),
(27,19,ls),
(27,9,o),
(36,0,o),
(47,0,cs),
(301,1,ls),
(314,1,o),
(321,19,o),
(317,42,cs),
(311,86,o),
(305,129,o),
(302,136,c),
(285,250,o),
(252,363,o),
(212,471,cs),
(208,483,o),
(204,498,o),
(207,511,cs),
(210,531,o),
(227,540,o),
(242,527,cs),
(249,520,o),
(253,510,o),
(256,499,cs),
(307,336,o),
(331,188,o),
(342,15,cs),
(342,7,o),
(349,1,o),
(360,1,cs),
(496,1,ls),
(507,1,o),
(514,7,o),
(514,15,cs),
(525,188,o),
(549,336,o),
(600,499,cs),
(603,510,o),
(607,520,o),
(614,527,cs),
(629,540,o),
(646,531,o),
(649,511,cs),
(652,498,o),
(648,483,o),
(644,471,cs),
(604,363,o),
(571,250,o),
(554,136,c),
(551,129,o),
(545,86,o),
(539,42,cs),
(535,19,o),
(542,1,o),
(555,1,cs),
(809,0,ls),
(820,0,o),
(829,9,o),
(829,19,cs),
(831,373,ls),
(831,427,o),
(827,486,o),
(798,533,cs)
);
}
);
width = 856;
}
);
unicode = 109;
},
{
glyphname = n;
lastChange = "2024-01-29 20:20:09 +0000";
layers = (
{
layerId = m01;
shapes = (
{
closed = 1;
nodes = (
(45,600,ls),
(34,600,o),
(25,591,o),
(25,580,cs),
(25,20,ls),
(25,9,o),
(34,0,o),
(45,0,cs),
(274,0,ls),
(285,0,o),
(293,8,o),
(294,19,cs),
(295,42,o),
(296,63,o),
(298,86,cs),
(301,133,o),
(306,180,o),
(313,226,cs),
(327,321,o),
(347,409,o),
(378,498,cs),
(382,509,o),
(387,519,o),
(394,526,cs),
(409,539,o),
(428,529,o),
(432,510,cs),
(435,496,o),
(432,482,o),
(427,469,cs),
(397,388,o),
(372,306,o),
(353,223,cs),
(343,178,o),
(334,132,o),
(327,86,cs),
(324,66,o),
(321,45,o),
(319,24,cs),
(317,10,o),
(327,0,o),
(340,0,cs),
(611,0,ls),
(622,0,o),
(631,9,o),
(631,20,cs),
(633,386,ls),
(634,516,o),
(598,623,o),
(465,623,cs),
(393,623,o),
(323,517,o),
(309,460,c),
(310,579,ls),
(310,591,o),
(301,600,o),
(289,600,cs)
);
}
);
width = 658;
}
);
unicode = 110;
},
{
glyphname = o;
lastChange = "2024-01-29 19:01:21 +0000";
layers = (
{
layerId = m01;
shapes = (
{
closed = 1;
nodes = (
(331,105,o),
(331,93,o),
(328,84,cs),
(327,79,o),
(325,75,o),
(320,72,cs),
(316,68,o),
(310,66,o),
(305,67,cs),
(297,69,o),
(293,76,o),
(292,82,cs),
(288,92,o),
(286,102,o),
(285,113,cs),
(283,128,o),
(283,151,o),
(281,167,cs),
(279,195,o),
(277,222,o),
(277,249,cs),
(277,255,o),
(277,261,o),
(277,268,cs),
(277,351,o),
(283,443,o),
(297,525,cs),
(298,533,o),
(299,539,o),
(301,547,cs),
(302,551,o),
(306,554,o),
(310,553,cs),
(315,552,o),
(318,548,o),
(318,545,cs),
(317,538,o),
(316,534,o),
(316,527,cs),
(309,442,o),
(305,351,o),
(311,268,cs),
(312,261,o),
(312,255,o),
(312,248,cs),
(315,222,o),
(319,195,o),
(322,169,cs),
(324,153,o),
(326,129,o),
(329,114,cs)
);
},
{
closed = 1;
nodes = (
(0,122,o),
(133,-20,o),
(305,-20,cs),
(475,-20,o),
(608,122,o),
(608,299,cs),
(608,475,o),
(475,617,o),
(305,617,cs),
(133,617,o),
(0,475,o),
(0,299,cs)
);
}
);
width = 608;
}
);
unicode = 111;
},
{
glyphname = q;
lastChange = "2024-01-30 17:18:22 +0000";
layers = (
{
layerId = m01;
shapes = (
{
closed = 1;
nodes = (
(340,70,o),
(328,61,o),
(318,63,c),
(293,71,o),
(299,139,o),
(294,163,c),
(285,281,o),
(292,404,o),
(310,521,c),
(313,530,o),
(311,550,o),
(323,549,c),
(328,548,o),
(331,544,o),
(331,541,c),
(319,416,o),
(317,288,o),
(335,165,c),
(337,149,o),
(339,125,o),
(342,110,c),
(344,101,o),
(344,89,o),
(341,80,c)
);
},
{
closed = 1;
nodes = (
(23,120,o),
(88,52,o),
(183,5,c),
(218,-13,o),
(259,-23,o),
(306,-24,c),
(320,-25,o),
(327,-41,o),
(319,-52,c),
(291,-89,o),
(268,-133,o),
(255,-179,c),
(236,-243,o),
(236,-313,o),
(263,-378,c),
(306,-488,o),
(409,-551,o),
(516,-525,c),
(546,-519,o),
(555,-473,o),
(538,-428,c),
(517,-364,o),
(487,-277,o),
(481,-217,c),
(474,-133,o),
(477,-44,o),
(523,29,c),
(589,135,o),
(645,248,o),
(611,376,c),
(588,461,o),
(533,538,o),
(455,580,c),
(413,603,o),
(367,613,o),
(318,613,c),
(215,613,o),
(139,571,o),
(89,509,c),
(34,439,o),
(1,314,o),
(11,224,c)
);
}
);
width = 662;
}
);
unicode = 113;
},
{
color = 1;
glyphname = r;
lastChange = "2024-01-30 16:40:48 +0000";
layers = (
{
layerId = m01;
shapes = (
{
closed = 1;
nodes = (
(572,573,o),
(525,621,o),
(468,621,cs),
(436,621,o),
(401,606,o),
(366,566,cs),
(343,539,o),
(326,507,o),
(310,476,c),
(310,580,ls),
(310,591,o),
(301,600,o),
(290,600,cs),
(48,600,ls),
(37,600,o),
(28,591,o),
(28,580,cs),
(25,21,ls),
(25,10,o),
(35,0,o),
(46,0,cs),
(290,0,ls),
(302,0,o),
(311,9,o),
(311,20,cs),
(311,85,o),
(314,225,o),
(318,267,cs),
(323,344,o),
(336,420,o),
(367,494,cs),
(374,510,o),
(386,528,o),
(403,526,cs),
(414,524,o),
(422,514,o),
(423,503,cs),
(425,492,o),
(422,481,o),
(418,471,cs),
(400,425,o),
(366,393,o),
(354,346,cs),
(352,338,o),
(351,330,o),
(355,323,cs),
(361,314,o),
(374,313,o),
(385,313,cs),
(599,313,ls),
(604,313,o),
(609,313,o),
(613,316,cs),
(619,320,o),
(620,328,o),
(621,336,cs),
(623,375,ls),
(623,431,o),
(619,488,o),
(592,537,cs)
);
}
);
width = 648;
}
);
unicode = 114;
},
{
glyphname = u;
lastChange = "2024-01-30 14:51:47 +0000";
layers = (
{
layerId = m01;
shapes = (
{
closed = 1;
nodes = (
(332,599,ls),
(322,599,o),
(315,593,o),
(315,584,cs),
(314,562,ls),
(313,530,o),
(308,497,o),
(307,464,cs),
(304,403,o),
(306,342,o),
(310,282,cs),
(312,248,o),
(313,215,o),
(318,180,cs),
(326,123,ls),
(328,110,o),
(328,97,o),
(325,84,cs),
(322,79,o),
(319,74,o),
(315,69,cs),
(312,65,o),
(304,62,o),
(297,63,cs),
(290,65,o),
(286,74,o),
(283,81,cs),
(280,94,o),
(279,107,o),
(277,121,cs),
(275,139,o),
(275,159,o),
(274,178,cs),
(272,213,o),
(271,247,o),
(271,282,cs),
(271,351,o),
(275,421,o),
(283,489,cs),
(285,513,o),
(287,537,o),
(291,561,cs),
(292,568,o),
(292,574,o),
(293,581,cs),
(294,591,o),
(286,600,o),
(275,600,cs),
(40,600,ls),
(31,600,o),
(23,593,o),
(23,584,cs),
(23,280,l),
(24,235,ls),
(28,70,o),
(131,-17,o),
(298,-18,cs),
(467,-19,o),
(566,70,o),
(573,235,cs),
(575,280,l),
(575,584,ls),
(575,592,o),
(567,599,o),
(558,599,cs)
);
}
);
width = 598;
}
);
unicode = 117;
},
{
glyphname = v;
lastChange = "2024-01-30 14:51:53 +0000";
layers = (
{
layerId = m01;
shapes = (
{
closed = 1;
nodes = (
(286,550,o),
(288,525,o),
(290,499,cs),
(296,428,o),
(300,356,o),
(301,285,cs),
(301,249,o),
(300,213,o),
(297,179,cs),
(296,159,o),
(296,139,o),
(295,119,cs),
(294,105,o),
(293,91,o),
(288,79,cs),
(287,71,o),
(283,61,o),
(276,59,cs),
(271,58,o),
(264,61,o),
(260,66,cs),
(255,71,o),
(253,76,o),
(252,81,cs),
(248,94,o),
(250,109,o),
(251,120,cs),
(253,140,o),
(255,160,o),
(258,181,cs),
(260,216,o),
(264,251,o),
(265,285,cs),
(268,348,o),
(269,411,o),
(268,473,cs),
(266,507,o),
(264,542,o),
(261,574,cs),
(261,579,o),
(261,584,o),
(261,587,cs),
(261,595,o),
(254,600,o),
(246,600,cs),
(16,600,ls),
(7,600,o),
(0,594,o),
(0,585,cs),
(1,494,o),
(3,396,o),
(23,310,cs),
(43,220,o),
(77,129,o),
(137,59,cs),
(170,22,o),
(224,-20,o),
(275,-20,cs),
(325,-20,o),
(380,21,o),
(412,59,cs),
(473,129,o),
(507,220,o),
(527,310,cs),
(547,396,o),
(548,494,o),
(550,585,cs),
(550,594,o),
(543,600,o),
(534,600,cs),
(297,600,ls),
(288,600,o),
(281,593,o),
(281,583,cs),
(281,579,o),
(282,577,o),
(282,574,cs)
);
}
);
width = 556;
}
);
unicode = 118;
},
{
glyphname = w;
lastChange = "2024-01-30 11:25:28 +0000";
layers = (
{
layerId = m01;
shapes = (
{
closed = 1;
nodes = (
(596,351,o),
(629,238,o),
(669,130,cs),
(673,118,o),
(677,103,o),
(674,90,cs),
(671,70,o),
(654,61,o),
(639,74,cs),
(632,81,o),
(628,91,o),
(625,102,cs),
(574,265,o),
(550,413,o),
(539,586,cs),
(539,594,o),
(532,600,o),
(521,600,cs),
(360,601,ls),
(350,601,o),
(343,595,o),
(341,587,cs),
(331,414,o),
(308,266,o),
(257,103,cs),
(254,92,o),
(249,81,o),
(241,75,cs),
(229,62,o),
(210,71,o),
(207,90,cs),
(203,104,o),
(207,118,o),
(213,131,cs),
(252,239,o),
(285,351,o),
(303,466,cs),
(305,475,o),
(314,533,o),
(321,583,cs),
(322,593,o),
(313,601,o),
(301,601,cs),
(37,601,ls),
(28,601,o),
(20,594,o),
(20,586,cs),
(51,15,ls),
(51,6,o),
(59,0,o),
(70,0,cs),
(196,0,ls),
(341,0,o),
(416,34,o),
(442,148,c),
(466,33,o),
(539,-1,o),
(686,-1,cs),
(813,-1,ls),
(822,-1,o),
(831,6,o),
(831,14,cs),
(861,585,ls),
(861,593,o),
(853,600,o),
(843,600,cs),
(580,600,ls),
(567,600,o),
(560,582,o),
(564,559,cs),
(570,515,o),
(576,472,o),
(579,465,cs)
);
}
);
width = 881;
}
);
unicode = 119;
},
{
glyphname = x;
lastChange = "2024-01-29 20:21:40 +0000";
layers = (
{
layerId = m01;
shapes = (
{
closed = 1;
nodes = (
(317,492,o),
(324,431,o),
(316,374,cs),
(314,367,o),
(313,360,o),
(312,353,cs),
(310,343,o),
(309,333,o),
(300,327,cs),
(293,321,o),
(281,322,o),
(274,329,cs),
(267,337,o),
(267,348,o),
(269,359,cs),
(271,365,o),
(273,372,o),
(273,378,cs),
(278,398,o),
(280,418,o),
(282,437,cs),
(286,470,o),
(287,504,o),
(286,536,cs),
(284,552,o),
(281,569,o),
(279,587,cs),
(279,589,o),
(279,592,o),
(279,593,cs),
(279,596,o),
(272,600,o),
(263,600,cs),
(30,600,ls),
(21,600,o),
(15,596,o),
(15,592,cs),
(15,544,o),
(17,497,o),
(38,450,cs),
(58,405,o),
(91,359,o),
(149,323,cs),
(181,303,o),
(242,283,o),
(292,283,cs),
(342,283,o),
(402,303,o),
(435,323,cs),
(493,359,o),
(527,405,o),
(547,450,cs),
(568,497,o),
(569,544,o),
(570,592,cs),
(570,596,o),
(564,600,o),
(555,600,cs),
(314,600,ls),
(305,600,o),
(298,596,o),
(299,590,cs),
(299,589,o),
(299,588,o),
(299,587,c),
(303,574,o),
(305,561,o),
(307,548,cs)
);
},
{
closed = 1;
nodes = (
(299,13,o),
(299,12,o),
(299,11,cs),
(298,5,o),
(305,1,o),
(314,1,cs),
(555,1,ls),
(564,1,o),
(570,5,o),
(570,9,cs),
(569,57,o),
(568,104,o),
(547,151,cs),
(527,196,o),
(493,242,o),
(435,278,cs),
(402,298,o),
(342,318,o),
(292,318,cs),
(242,318,o),
(181,298,o),
(149,278,cs),
(91,242,o),
(58,196,o),
(38,151,cs),
(17,104,o),
(15,57,o),
(15,9,cs),
(15,5,o),
(21,1,o),
(30,1,cs),
(263,1,ls),
(272,1,o),
(279,5,o),
(279,8,cs),
(279,9,o),
(279,12,o),
(279,14,cs),
(281,32,o),
(284,49,o),
(286,65,cs),
(287,97,o),
(286,131,o),
(282,164,cs),
(280,183,o),
(278,203,o),
(273,223,cs),
(273,229,o),
(271,236,o),
(269,242,cs),
(267,253,o),
(267,264,o),
(274,272,cs),
(281,279,o),
(293,280,o),
(300,274,cs),
(309,268,o),
(310,258,o),
(312,248,cs),
(313,241,o),
(314,234,o),
(316,227,cs),
(324,170,o),
(317,109,o),
(307,53,cs),
(305,40,o),
(303,27,o),
(299,14,c)
);
}
);
width = 585;
}
);
unicode = 120;
},
{
glyphname = y;
lastChange = "2024-01-30 15:12:14 +0000";
layers = (
{
layerId = m01;
shapes = (
{
closed = 1;
nodes = (
(565,594,o),
(558,600,o),
(549,600,cs),
(312,600,ls),
(303,600,o),
(296,593,o),
(296,583,cs),
(296,579,o),
(297,577,o),
(297,574,c),
(301,550,o),
(303,525,o),
(305,499,cs),
(311,428,o),
(315,356,o),
(316,285,cs),
(316,249,o),
(315,213,o),
(312,179,cs),
(311,159,o),
(311,139,o),
(310,119,cs),
(309,105,o),
(308,91,o),
(303,79,c),
(302,71,o),
(298,61,o),
(291,59,cs),
(286,58,o),
(279,61,o),
(275,66,cs),
(270,71,o),
(268,76,o),
(267,81,cs),
(263,94,o),
(265,109,o),
(266,120,cs),
(268,140,o),
(270,160,o),
(273,181,cs),
(275,216,o),
(279,251,o),
(280,285,cs),
(283,348,o),
(284,411,o),
(283,473,cs),
(281,507,o),
(276,542,o),
(276,574,cs),
(276,587,ls),
(276,594,o),
(271,600,o),
(263,600,cs),
(31,600,ls),
(22,600,o),
(15,594,o),
(15,585,cs),
(16,494,o),
(18,396,o),
(38,310,cs),
(58,220,o),
(92,129,o),
(152,59,cs),
(185,22,o),
(239,-20,o),
(290,-20,cs),
(340,-20,o),
(395,21,o),
(427,59,c),
(432,63,o),
(436,68,o),
(440,73,cs),
(444,79,o),
(452,74,o),
(450,68,c),
(450,67,l),
(431,18,o),
(406,-15,o),
(359,-40,cs),
(328,-56,o),
(292,-65,o),
(258,-70,cs),
(215,-75,o),
(149,-59,o),
(101,-46,cs),
(67,-36,o),
(36,-54,o),
(35,-90,cs),
(34,-147,o),
(45,-206,o),
(72,-255,cs),
(94,-296,o),
(132,-330,o),
(175,-346,cs),
(231,-367,o),
(289,-346,o),
(332,-306,cs),
(364,-276,o),
(389,-240,o),
(410,-201,cs),
(434,-154,o),
(451,-103,o),
(466,-53,cs),
(493,32,o),
(512,119,o),
(528,207,cs),
(534,245,o),
(540,283,o),
(545,320,cs),
(557,408,o),
(564,496,o),
(565,585,cs)
);
}
);
width = 580;
}
);
unicode = 121;
},
{
glyphname = z;
lastChange = "2024-01-31 01:07:46 +0000";
layers = (
{
layerId = m01;
shapes = (
{
closed = 1;
nodes = (
(25,161,o),
(28,189,o),
(35,216,c),
(41,242,o),
(50,266,o),
(62,290,c),
(74,312,o),
(88,335,o),
(105,355,c),
(121,377,o),
(140,397,o),
(162,419,c),
(180,437,o),
(199,455,o),
(219,471,c),
(239,487,o),
(257,502,o),
(274,515,c),
(291,528,o),
(305,541,o),
(315,551,c),
(326,560,o),
(332,568,o),
(332,574,c),
(332,577,o),
(331,581,o),
(328,582,c),
(326,584,o),
(324,585,o),
(322,585,c),
(303,585,o),
(281,576,o),
(257,559,c),
(233,542,o),
(208,521,o),
(183,496,c),
(157,470,o),
(133,442,o),
(110,413,c),
(86,382,o),
(66,354,o),
(50,328,c),
(48,325,o),
(45,324,o),
(42,327,c),
(38,328,o),
(36,331,o),
(36,334,c),
(36,398,l),
(36,416,o),
(36,433,o),
(37,450,c),
(37,468,o),
(37,486,o),
(37,508,c),
(37,586,l),
(37,595,o),
(41,600,o),
(49,600,c),
(489,600,l),
(508,600,o),
(521,593,o),
(530,578,c),
(538,564,o),
(543,549,o),
(543,534,c),
(543,507,o),
(535,479,o),
(519,450,c),
(503,423,o),
(482,395,o),
(458,367,c),
(434,340,o),
(407,312,o),
(379,285,c),
(351,257,o),
(324,229,o),
(300,202,c),
(276,174,o),
(256,146,o),
(240,120,c),
(224,92,o),
(216,65,o),
(216,39,c),
(216,29,o),
(216,24,o),
(218,20,c),
(220,17,o),
(223,16,o),
(225,16,c),
(231,16,o),
(237,24,o),
(244,42,c),
(250,59,o),
(260,81,o),
(273,105,c),
(284,127,o),
(297,148,o),
(312,172,c),
(327,195,o),
(344,216,o),
(362,235,c),
(380,255,o),
(400,271,o),
(421,285,c),
(442,297,o),
(464,303,o),
(487,303,c),
(503,303,o),
(514,300,o),
(520,294,c),
(526,287,o),
(529,278,o),
(529,268,c),
(529,0,l),
(529,-4,o),
(528,-7,o),
(528,-10,c),
(527,-14,o),
(526,-15,o),
(523,-15,c),
(517,-15,o),
(511,-11,o),
(505,-5,c),
(499,1,o),
(491,7,o),
(482,14,c),
(472,22,o),
(460,28,o),
(445,35,c),
(430,41,o),
(410,44,o),
(386,44,c),
(362,44,o),
(340,41,o),
(321,35,c),
(302,28,o),
(283,22,o),
(266,14,c),
(248,7,o),
(231,1,o),
(213,-5,c),
(195,-11,o),
(176,-15,o),
(155,-15,c),
(135,-15,o),
(116,-10,o),
(100,-3,c),
(84,4,o),
(70,14,o),
(59,27,c),
(48,41,o),
(40,56,o),
(34,74,c),
(28,91,o),
(25,109,o),
(25,130,c)
);
}
);
width = 568;
}
);
unicode = 122;
},
{
glyphname = n.001;
layers = (
{
layerId = m01;
shapes = (
{
closed = 1;
nodes = (
(45,600,ls),
(34,600,o),
(25,591,o),
(25,580,cs),
(25,20,ls),
(25,9,o),
(34,0,o),
(45,0,cs),
(274,0,ls),
(285,0,o),
(293,8,o),
(294,19,cs),
(295,42,o),
(296,63,o),
(298,86,cs),
(301,133,o),
(306,180,o),
(313,226,cs),
(327,321,o),
(347,409,o),
(378,498,cs),
(382,509,o),
(387,519,o),
(394,526,cs),
(409,539,o),
(428,529,o),
(432,510,cs),
(435,496,o),
(432,482,o),
(427,469,cs),
(397,388,o),
(372,306,o),
(353,223,cs),
(343,178,o),
(334,132,o),
(327,86,cs),
(324,66,o),
(321,45,o),
(319,24,cs),
(317,10,o),
(327,0,o),
(340,0,cs),
(611,0,ls),
(622,0,o),
(631,9,o),
(631,20,cs),
(633,386,ls),
(634,516,o),
(598,623,o),
(465,623,cs),
(393,623,o),
(323,517,o),
(309,460,c),
(310,579,ls),
(310,591,o),
(301,600,o),
(289,600,cs)
);
}
);
width = 658;
}
);
},
{
glyphname = zero;
lastChange = "2023-12-07 05:14:15 +0000";
layers = (
{
layerId = m01;
shapes = (
{
closed = 1;
nodes = (
(405,-17,o),
(363,-17,o),
(352,343,cs),
(351,380,o),
(351,418,o),
(352,456,cs),
(358,873,o),
(408,818,o),
(416,456,cs),
(416,437,o),
(417,418,o),
(417,399,cs),
(417,380,o),
(417,362,o),
(416,343,cs)
);
},
{
closed = 1;
nodes = (
(213,817,o),
(40,630,o),
(40,400,cs),
(40,168,o),
(213,-18,o),
(385,-18,cs),
(555,-18,o),
(728,168,o),
(728,400,cs),
(728,630,o),
(555,817,o),
(385,817,cs)
);
}
);
width = 768;
}
);
unicode = 48;
},
{
glyphname = one;
lastChange = "2023-12-07 17:39:46 +0000";
layers = (
{
guides = (
{
angle = 0.5455;
pos = (153,472);
},
{
pos = (17,666);
}
);
layerId = m01;
shapes = (
{
closed = 1;
nodes = (
(0,549,ls),
(0,507,o),
(37,489,o),
(75,507,cs),
(241,584,ls),
(245,586,o),
(249,580,o),
(245,577,cs),
(100,474,ls),
(92,468,o),
(89,458,o),
(89,450,cs),
(91,41,ls),
(91,19,o),
(109,1,o),
(132,1,cs),
(300,1,ls),
(323,1,o),
(341,19,o),
(341,41,cs),
(341,760,ls),
(341,782,o),
(323,800,o),
(300,800,cs),
(41,800,ls),
(18,800,o),
(0,782,o),
(0,760,cs)
);
}
);
width = 381;
}
);
unicode = 49;
},
{
glyphname = two;
lastChange = "2024-01-18 16:05:39 +0000";
layers = (
{
layerId = m01;
shapes = (
{
closed = 1;
nodes = (
(308,246,o),
(212,225,o),
(180,225,cs),
(171,225,o),
(167,227,o),
(167,231,cs),
(167,255,o),
(281,278,o),
(296,281,cs),
(382,297,o),
(476,324,o),
(540,384,cs),
(586,427,o),
(607,480,o),
(607,536,cs),
(607,566,o),
(601,598,o),
(588,628,cs),
(545,735,o),
(441,818,o),
(323,818,cs),
(229,818,o),
(130,765,o),
(80,683,cs),
(54,640,o),
(40,594,o),
(40,544,cs),
(40,510,o),
(45,455,o),
(76,455,cs),
(278,453,ls),
(300,453,o),
(309,463,o),
(309,482,cs),
(309,486,o),
(309,490,o),
(308,494,cs),
(303,522,o),
(300,538,o),
(300,583,cs),
(300,670,o),
(310,740,o),
(323,740,cs),
(333,740,o),
(341,702,o),
(345,647,c),
(345,603,ls),
(345,565,o),
(343,522,o),
(340,486,cs),
(337,465,o),
(332,451,o),
(326,447,c),
(320,438,o),
(313,429,o),
(304,421,cs),
(264,381,o),
(209,362,o),
(161,335,cs),
(120,314,o),
(85,284,o),
(65,241,cs),
(50,206,o),
(45,168,o),
(45,130,cs),
(45,40,ls),
(45,18,o),
(62,0,o),
(85,0,cs),
(566,0,ls),
(588,0,o),
(606,18,o),
(606,40,cs),
(606,238,ls),
(606,266,o),
(583,284,o),
(554,280,cs)
);
}
);
width = 647;
}
);
unicode = 50;
},
{
glyphname = three;
lastChange = "2023-12-12 09:05:57 +0000";
layers = (
{
layerId = m01;
shapes = (
{
closed = 1;
nodes = (
(545,388,o),
(513,394,o),
(480,402,c),
(502,408,o),
(523,415,o),
(544,423,cs),
(600,446,o),
(653,485,o),
(653,552,cs),
(653,676,o),
(494,819,o),
(355,819,cs),
(181,819,o),
(44,586,o),
(44,509,cs),
(44,490,o),
(59,479,o),
(80,479,cs),
(290,479,ls),
(315,479,o),
(329,502,o),
(330,531,cs),
(338,834,o),
(379,816,o),
(379,538,cs),
(379,473,o),
(314,464,o),
(314,410,cs),
(314,406,o),
(315,401,o),
(316,396,cs),
(323,373,o),
(342,357,o),
(357,340,cs),
(393,293,o),
(388,279,o),
(388,234,cs),
(388,27,o),
(356,9,o),
(346,278,cs),
(345,307,o),
(330,320,o),
(305,320,cs),
(77,320,ls),
(54,320,o),
(40,309,o),
(40,289,cs),
(40,217,o),
(171,-16,o),
(362,-16,cs),
(487,-16,o),
(620,90,o),
(669,212,cs),
(699,289,o),
(664,344,o),
(577,375,cs)
);
}
);
width = 720;
}
);
unicode = 51;
},
{
glyphname = four;
lastChange = "2023-12-07 17:26:25 +0000";
layers = (
{
layerId = m01;
shapes = (
{
closed = 1;
nodes = (
(401,38,ls),
(401,15,o),
(419,-3,o),
(442,-3,cs),
(612,-3,ls),
(635,-3,o),
(653,15,o),
(653,38,cs),
(653,382,ls),
(653,405,o),
(635,423,o),
(612,423,cs),
(442,423,ls),
(419,423,o),
(401,405,o),
(401,382,cs)
);
},
{
closed = 1;
nodes = (
(198,801,ls),
(179,801,o),
(163,788,o),
(160,769,cs),
(42,130,ls),
(37,104,o),
(41,90,o),
(67,90,cs),
(520,90,ls),
(533,90,o),
(543,104,o),
(543,119,cs),
(543,350,ls),
(543,373,o),
(529,390,o),
(513,383,cs),
(131,213,o),
(-29,135,o),
(333,362,cs),
(346,370,o),
(349,381,o),
(352,394,cs),
(423,749,ls),
(429,777,o),
(409,801,o),
(380,801,cs)
);
}
);
width = 693;
}
);
unicode = 52;
},
{
glyphname = five;
lastChange = "2024-01-18 16:05:58 +0000";
layers = (
{
layerId = m01;
shapes = (
{
closed = 1;
nodes = (
(605,336,o),
(595,375,o),
(572,410,cs),
(535,466,o),
(481,506,o),
(408,526,cs),
(330,546,o),
(252,540,o),
(170,560,cs),
(158,563,o),
(127,585,o),
(141,585,cs),
(523,585,ls),
(545,585,o),
(564,602,o),
(564,624,cs),
(565,761,ls),
(565,783,o),
(546,800,o),
(524,800,cs),
(84,800,ls),
(59,800,o),
(42,783,o),
(42,761,cs),
(42,498,ls),
(42,471,o),
(60,456,o),
(86,456,cs),
(102,456,o),
(122,458,o),
(143,458,cs),
(203,458,o),
(274,450,o),
(296,427,cs),
(306,418,o),
(313,407,o),
(318,393,c),
(327,377,o),
(335,277,o),
(335,202,cs),
(335,119,o),
(326,57,o),
(313,57,cs),
(302,57,o),
(291,119,o),
(291,202,cs),
(291,238,o),
(293,321,o),
(296,353,cs),
(298,379,o),
(285,396,o),
(261,396,cs),
(79,396,ls),
(65,396,o),
(54,389,o),
(48,378,cs),
(30,345,o),
(23,311,o),
(23,276,cs),
(23,257,o),
(25,238,o),
(29,220,cs),
(42,155,o),
(67,103,o),
(118,59,cs),
(171,14,o),
(243,-17,o),
(313,-17,cs),
(391,-17,o),
(465,20,o),
(519,75,cs),
(578,136,o),
(605,211,o),
(605,296,cs)
);
}
);
width = 664;
}
);
unicode = 53;
},
{
glyphname = six;
lastChange = "2024-01-25 20:57:21 +0000";
layers = (
{
layerId = m01;
shapes = (
{
closed = 1;
nodes = (
(282,407,l),
(282,408,o),
(285,409,o),
(287,408,c),
(391,350,o),
(429,170,o),
(429,95,c),
(429,93,o),
(424,93,o),
(424,94,c)
);
},
{
closed = 1;
nodes = (
(332,404,o),
(343,574,cs),
(354,730,o),
(377,868,o),
(382,542,c),
(383,514,o),
(397,501,o),
(421,501,c),
(634,501,l),
(656,501,o),
(671,512,o),
(671,531,cs),
(671,535,o),
(670,540,o),
(668,545,c),
(626,682,o),
(506,818,o),
(366,818,cs),
(181,818,o),
(40,585,o),
(40,408,cs),
(40,275,o),
(101,139,o),
(211,59,c),
(267,18,o),
(320,2,o),
(391,4,cs),
(514,7,o),
(668,184,o),
(668,316,cs),
(668,340,o),
(664,362,o),
(653,381,cs),
(590,500,o)
);
}
);
width = 711;
}
);
unicode = 54;
},
{
glyphname = seven;
lastChange = "2024-01-18 16:06:25 +0000";
layers = (
{
layerId = m01;
shapes = (
{
closed = 1;
nodes = (
(560,760,cs),
(560,786,o),
(546,800,o),
(520,800,cs),
(81,800,ls),
(58,800,o),
(40,782,o),
(40,759,cs),
(40,570,ls),
(40,536,o),
(63,514,o),
(90,514,cs),
(102,514,o),
(114,518,o),
(125,527,cs),
(304,662,ls),
(377,717,o),
(460,768,o),
(460,751,cs),
(460,741,o),
(426,704,o),
(392,673,cs),
(337,623,o),
(281,573,o),
(233,516,cs),
(186,459,o),
(153,396,o),
(131,324,cs),
(103,233,o),
(90,137,o),
(88,42,cs),
(87,18,o),
(105,0,o),
(129,0,cs),
(355,0,ls),
(378,0,o),
(394,18,o),
(395,43,cs),
(403,240,o),
(426,389,o),
(456,498,cs),
(488,611,o),
(524,681,o),
(544,713,cs),
(554,730,o),
(560,743,o)
);
}
);
width = 582;
}
);
unicode = 55;
},
{
glyphname = eight;
lastChange = "2024-01-26 10:15:06 +0000";
layers = (
{
layerId = m01;
shapes = (
{
closed = 1;
nodes = (
(317,455,o),
(307,517,o),
(307,604,c),
(307,691,o),
(317,753,o),
(331,753,c),
(344,753,o),
(355,691,o),
(355,604,c),
(355,517,o),
(344,455,o),
(331,455,c)
);
},
{
closed = 1;
nodes = (
(57,475,o),
(195,404,o),
(332,404,c),
(466,404,o),
(603,475,o),
(603,589,c),
(603,703,o),
(466,814,o),
(332,814,cs),
(195,814,o),
(57,703,o),
(57,589,c)
);
},
{
closed = 1;
nodes = (
(316,58,o),
(303,128,o),
(303,226,c),
(303,325,o),
(316,395,o),
(332,395,c),
(347,395,o),
(361,325,o),
(361,226,c),
(361,128,o),
(347,58,o),
(332,58,c)
);
},
{
closed = 1;
nodes = (
(20,122,o),
(171,-22,o),
(333,-22,cs),
(491,-22,o),
(654,111,o),
(654,239,c),
(654,367,o),
(491,439,o),
(333,439,c),
(171,439,o),
(20,368,o),
(20,246,c)
);
}
);
width = 674;
}
);
unicode = 56;
},
{
glyphname = nine;
lastChange = "2024-01-29 17:45:36 +0000";
layers = (
{
layerId = m01;
shapes = (
{
closed = 1;
nodes = (
(344,769,o),
(344,579,cs),
(344,388,o),
(307,396,o),
(307,579,cs),
(307,761,o)
);
},
{
closed = 1;
nodes = (
(40,106,o),
(203,-18,o),
(321,-18,cs),
(522,-18,o),
(642,187,o),
(642,391,cs),
(642,596,o),
(522,800,o),
(321,800,cs),
(201,800,o),
(113,694,o),
(68,576,cs),
(59,552,o),
(54,525,o),
(54,498,cs),
(54,446,o),
(73,396,o),
(119,374,cs),
(167,350,o),
(220,358,o),
(272,351,cs),
(295,348,o),
(323,340,o),
(335,314,cs),
(337,309,o),
(338,291,o),
(338,268,cs),
(338,89,o),
(312,-68,o),
(302,280,cs),
(301,301,o),
(289,317,o),
(272,317,cs),
(72,317,ls),
(49,317,o),
(40,297,o),
(40,267,cs)
);
}
);
width = 682;
}
);
unicode = 57;
},
{
glyphname = period;
lastChange = "2023-12-07 05:13:38 +0000";
layers = (
{
layerId = m01;
shapes = (
{
closed = 1;
nodes = (
(93,172,o),
(40,129,o),
(40,76,cs),
(40,24,o),
(93,-19,o),
(135,-19,cs),
(177,-19,o),
(230,24,o),
(230,76,cs),
(230,129,o),
(177,172,o),
(135,172,c)
);
}
);
width = 270;
}
);
unicode = 46;
},
{
glyphname = comma;
lastChange = "2023-12-07 15:50:26 +0000";
layers = (
{
layerId = m01;
shapes = (
{
closed = 1;
nodes = (
(204,171,ls),
(226,171,o),
(247,159,o),
(248,139,cs),
(255,66,o),
(195,-57,o),
(121,-101,cs),
(87,-121,o),
(50,-94,o),
(50,-57,cs),
(50,127,ls),
(50,152,o),
(71,171,o),
(98,171,cs)
);
}
);
width = 299;
}
);
unicode = 44;
},
{
glyphname = semicolon;
lastChange = "2023-12-07 15:50:22 +0000";
layers = (
{
layerId = m01;
shapes = (
{
closed = 1;
nodes = (
(107,617,o),
(54,574,o),
(54,521,cs),
(54,469,o),
(107,426,o),
(149,426,cs),
(191,426,o),
(244,469,o),
(244,521,cs),
(244,574,o),
(191,617,o),
(149,617,cs)
);
},
{
closed = 1;
nodes = (
(204,171,ls),
(226,171,o),
(247,159,o),
(248,139,cs),
(255,66,o),
(195,-57,o),
(121,-101,cs),
(87,-121,o),
(50,-94,o),
(50,-57,cs),
(50,127,ls),
(50,152,o),
(71,171,o),
(98,171,cs)
);
}
);
width = 299;
}
);
unicode = 59;
},
{
glyphname = exclam;
lastChange = "2023-12-05 17:56:42 +0000";
layers = (
{
layerId = m01;
shapes = (
{
closed = 1;
nodes = (
(40,236,o),
(58,219,o),
(81,219,cs),
(216,219,ls),
(239,219,o),
(257,236,o),
(257,259,cs),
(257,761,ls),
(257,784,o),
(239,801,o),
(216,801,cs),
(81,801,ls),
(58,801,o),
(40,784,o),
(40,761,cs),
(40,259,ls)
);
},
{
closed = 1;
nodes = (
(107,171,o),
(54,128,o),
(54,75,cs),
(54,23,o),
(107,-20,o),
(149,-20,cs),
(191,-20,o),
(244,23,o),
(244,75,cs),
(244,128,o),
(191,171,o),
(149,171,c)
);
}
);
width = 297;
}
);
unicode = 33;
},
{
glyphname = question;
lastChange = "2023-12-06 09:30:08 +0000";
layers = (
{
layerId = m01;
shapes = (
{
closed = 1;
nodes = (
(127,829,o),
(0,628,o),
(0,562,cs),
(0,545,o),
(15,535,o),
(36,535,cs),
(226,535,ls),
(251,535,o),
(265,547,o),
(266,571,cs),
(274,782,o),
(311,814,o),
(315,626,cs),
(316,598,o),
(314,568,o),
(298,542,cs),
(282,514,o),
(259,491,o),
(242,462,cs),
(213,415,o),
(195,360,o),
(188,306,cs),
(186,287,o),
(184,270,o),
(184,253,cs),
(183,232,o),
(201,216,o),
(225,216,cs),
(361,216,ls),
(384,216,o),
(402,231,o),
(402,252,cs),
(404,347,o),
(415,382,o),
(496,455,cs),
(563,514,o),
(580,569,o),
(580,622,cs),
(580,726,o),
(421,829,o),
(301,829,cs)
);
},
{
pos = (161,0);
ref = period;
}
);
width = 620;
}
);
unicode = 63;
},
{
glyphname = hyphen;
lastChange = "2023-12-05 18:38:57 +0000";
layers = (
{
layerId = m01;
shapes = (
{
closed = 1;
nodes = (
(40,278,ls),
(40,255,o),
(58,237,o),
(81,237,cs),
(319,237,ls),
(342,237,o),
(360,255,o),
(360,278,cs),
(360,400,ls),
(360,423,o),
(342,441,o),
(319,441,cs),
(81,441,ls),
(58,441,o),
(40,423,o),
(40,400,cs)
);
}
);
width = 400;
}
);
unicode = 45;
},
{
glyphname = parenleft;
lastChange = "2024-01-25 20:57:43 +0000";
layers = (
{
layerId = m01;
shapes = (
{
closed = 1;
nodes = (
(313,850,ls),
(330,850,o),
(341,835,o),
(335,819,cs),
(283,678,o),
(230,529,o),
(230,349,cs),
(230,169,o),
(283,20,o),
(335,-121,cs),
(341,-137,o),
(330,-152,o),
(313,-152,cs),
(266,-152,ls),
(258,-152,o),
(250,-149,o),
(243,-143,cs),
(120,-23,o),
(40,141,o),
(40,349,cs),
(40,557,o),
(120,721,o),
(243,841,cs),
(250,847,o),
(258,850,o),
(266,850,cs)
);
}
);
width = 377;
}
);
unicode = 40;
},
{
glyphname = parenright;
lastChange = "2024-01-25 20:57:43 +0000";
layers = (
{
layerId = m01;
shapes = (
{
closed = 1;
nodes = (
(119,850,o),
(127,847,o),
(134,841,cs),
(257,721,o),
(337,557,o),
(337,349,cs),
(337,141,o),
(257,-23,o),
(134,-143,cs),
(127,-149,o),
(119,-152,o),
(111,-152,cs),
(64,-152,ls),
(47,-152,o),
(36,-137,o),
(42,-121,cs),
(94,20,o),
(147,169,o),
(147,349,cs),
(147,529,o),
(94,678,o),
(42,819,cs),
(36,835,o),
(47,850,o),
(64,850,cs),
(111,850,ls)
);
}
);
width = 377;
}
);
unicode = 41;
},
{
glyphname = at;
lastChange = "2024-01-25 20:57:43 +0000";
layers = (
{
layerId = m01;
shapes = (
{
closed = 1;
nodes = (
(415,486,o),
(429,475,o),
(436,339,cs),
(444,185,o),
(402,184,o),
(409,336,cs)
);
},
{
closed = 1;
nodes = (
(818,617,o),
(622,818,o),
(430,818,cs),
(236,818,o),
(40,617,o),
(40,369,cs),
(40,179,o),
(154,17,o),
(294,-49,cs),
(325,-64,o),
(354,-41,o),
(354,-7,cs),
(354,56,ls),
(354,71,o),
(345,84,o),
(331,90,cs),
(228,135,o),
(175,224,o),
(175,369,cs),
(175,556,o),
(273,689,o),
(420,689,cs),
(678,689,o),
(796,361,o),
(657,174,cs),
(621,126,o),
(616,185,o),
(616,218,cs),
(616,497,ls),
(616,513,o),
(604,525,o),
(589,525,cs),
(470,525,ls),
(455,525,o),
(443,513,o),
(443,490,c),
(428,517,o),
(408,528,o),
(385,528,cs),
(352,528,o),
(315,502,o),
(288,465,cs),
(252,417,o),
(240,359,o),
(240,300,cs),
(240,240,o),
(258,181,o),
(297,143,cs),
(312,128,o),
(330,122,o),
(347,122,cs),
(379,122,o),
(411,143,o),
(429,173,cs),
(438,187,o),
(451,217,o),
(459,231,c),
(475,157,o),
(549,93,o),
(642,93,cs),
(727,93,o),
(775,154,o),
(798,233,cs),
(810,276,o),
(818,324,o),
(818,369,cs)
);
}
);
width = 858;
}
);
unicode = 64;
},
{
glyphname = ampersand;
lastChange = "2023-12-08 09:32:26 +0000";
layers = (
{
layerId = m01;
shapes = (
{
closed = 1;
nodes = (
(222,675,ls),
(221,676,o),
(220,678,o),
(221,678,c),
(222,680,o),
(226,680,o),
(232,679,cs),
(330,663,o),
(433,580,o),
(449,533,c),
(450,532,o),
(447,529,o),
(444,531,cs)
);
},
{
closed = 1;
nodes = (
(41,99,o),
(173,-6,o),
(299,-15,cs),
(346,-18,o),
(400,-13,o),
(433,21,c),
(448,-10,l),
(626,-8,ls),
(653,-8,o),
(674,11,o),
(674,37,cs),
(674,43,o),
(673,49,o),
(670,56,cs),
(630,165,ls),
(629,168,o),
(629,171,o),
(632,173,cs),
(702,219,o),
(784,335,o),
(784,410,cs),
(784,433,o),
(766,450,o),
(743,450,cs),
(613,450,ls),
(590,450,o),
(572,430,o),
(572,403,cs),
(572,326,o),
(571,316,o),
(570,320,cs),
(519,464,l),
(553,504,ls),
(578,532,o),
(585,567,o),
(585,603,cs),
(585,698,o),
(505,819,o),
(335,819,cs),
(212,819,o),
(85,723,o),
(85,603,cs),
(85,545,o),
(116,489,o),
(163,451,c),
(93,402,o),
(40,326,o),
(40,240,cs)
);
},
{
closed = 1;
nodes = (
(236,433,o),
(238,434,o),
(240,433,cs),
(342,370,o),
(416,182,o),
(419,81,c),
(420,78,o),
(417,78,o),
(416,80,cs),
(238,433,l)
);
}
);
width = 824;
}
);
unicode = 38;
},
{
glyphname = dollar;
lastChange = "2023-12-12 09:09:10 +0000";
layers = (
{
layerId = m01;
shapes = (
{
closed = 1;
nodes = (
(278,10,l),
(278,-49,ls),
(278,-72,o),
(297,-90,o),
(321,-90,cs),
(396,-90,ls),
(420,-90,o),
(438,-72,o),
(438,-49,cs),
(438,10,l)
);
},
{
closed = 1;
nodes = (
(577,438,o),
(500,452,o),
(444,465,cs),
(426,471,o),
(367,476,o),
(355,494,cs),
(347,506,o),
(344,531,o),
(344,560,cs),
(347,829,o),
(383,819,o),
(389,549,cs),
(389,522,o),
(404,496,o),
(429,496,cs),
(640,496,ls),
(663,496,o),
(677,506,o),
(677,525,cs),
(677,588,o),
(552,817,o),
(364,817,cs),
(220,817,o),
(59,659,o),
(59,559,cs),
(59,500,o),
(118,462,o),
(173,443,cs),
(232,420,o),
(296,415,o),
(355,391,cs),
(370,384,o),
(396,381,o),
(396,358,cs),
(396,56,o),
(344,-140,o),
(344,324,cs),
(344,352,o),
(330,366,o),
(305,366,cs),
(79,367,ls),
(52,367,o),
(37,352,o),
(41,324,cs),
(69,163,o),
(232,-15,o),
(364,-15,cs),
(451,-15,o),
(531,39,o),
(586,105,cs),
(668,195,o),
(716,322,o),
(624,399,cs)
);
},
{
closed = 1;
nodes = (
(329,900,l),
(329,790,l),
(404,790,l),
(404,900,l)
);
}
);
width = 717;
}
);
unicode = 36;
},
{
glyphname = euro;
lastChange = "2024-01-25 20:57:43 +0000";
layers = (
{
layerId = m01;
shapes = (
{
closed = 1;
nodes = (
(122,166,o),
(290,-16,o),
(457,-16,cs),
(567,-16,o),
(677,53,o),
(740,165,cs),
(758,198,o),
(734,231,o),
(698,231,cs),
(514,231,ls),
(492,231,o),
(475,215,o),
(474,192,cs),
(470,122,o),
(463,59,o),
(456,59,cs),
(448,59,o),
(437,171,o),
(434,345,cs),
(433,399,l),
(434,452,ls),
(437,626,o),
(448,738,o),
(456,738,cs),
(463,738,o),
(470,675,o),
(474,605,cs),
(475,582,o),
(492,566,o),
(514,566,cs),
(698,566,ls),
(734,566,o),
(758,599,o),
(740,632,cs),
(677,744,o),
(567,813,o),
(457,813,cs),
(290,813,o),
(122,631,o),
(118,403,c)
);
},
{
closed = 1;
nodes = (
(44,430,l),
(603,430,l),
(603,505,l),
(44,505,l)
);
},
{
closed = 1;
nodes = (
(44,288,l),
(603,288,l),
(603,363,l),
(44,363,l)
);
}
